<svg xmlns="http://www.w3.org/2000/svg" width="501" height="501" fill="none" viewBox="0 0 501 501">
    <path fill="#E04726" d="M250 488.889c131.935 0 238.889-106.954 238.889-238.889 0-131.934-106.954-238.889-238.889-238.889S11.111 118.066 11.111 250c0 131.935 106.954 238.889 238.889 238.889z"/>
    <path fill="#963720" d="M250 22.222c125.556 0 227.778 102.222 227.778 227.778S375.556 477.778 250 477.778 22.222 375.556 22.222 250 124.444 22.222 250 22.222zM250 0C112.222 0 0 112.222 0 250c0 137.778 112.222 250 250 250 137.778 0 250-112.222 250-250C500 112.222 387.778 0 250 0z"/>
    <path fill="#FDCF0D" d="M236.111 444.444c0-7.777 6.111-13.889 13.889-13.889h.556c7.777 0 13.889 6.112 13.889 13.889 0 7.778-6.112 13.889-13.889 13.889H250h-.555c-7.223 0-13.334-6.666-13.334-13.889zm-90-14.444c-6.666-3.889-8.889-12.222-5-18.889 3.889-6.667 12.222-8.889 18.889-5 6.667 3.889 8.889 12.222 5 18.889-2.778 4.444-7.222 6.666-12.222 6.666-2.222.556-4.445.001-6.667-1.666zm189.445-5c-3.889-6.667-1.667-15 5-18.889 6.666-3.889 15-1.667 18.889 5 3.888 6.667 1.666 15-5 18.889-2.223 1.111-4.445 1.666-7.223 1.666-4.444 0-8.889-2.222-11.666-6.666zM70 354.444c-3.889-6.666-1.667-15 5-18.889 6.667-3.888 15-1.666 18.889 5 3.889 6.667 1.667 15-5 18.889-2.222 1.111-4.444 1.667-6.667 1.667-5 0-10-2.778-12.222-6.667zm341.667 3.889c-6.667-3.889-8.889-12.222-5-18.889 3.889-6.666 12.222-8.889 18.889-5 6.666 3.889 8.889 12.222 5 18.889-2.778 4.445-7.223 7.222-12.223 7.222-2.222 0-4.444-.555-6.666-2.222zM41.667 250c0-7.778 6.11-13.889 13.889-13.889 7.777 0 13.889 6.111 13.889 13.889s-6.112 13.889-13.89 13.889c-7.222 0-13.888-6.111-13.888-13.889zm388.889-.556c0-7.777 6.111-13.889 13.889-13.889 7.777 0 13.888 6.112 13.888 13.889 0 7.778-6.111 13.889-13.888 13.889-7.778 0-13.889-6.111-13.889-13.889zM75 165c-6.667-3.889-8.889-12.222-5-18.889 3.889-6.667 12.222-8.889 18.889-5 6.667 3.889 8.889 12.222 5 18.889-2.778 4.444-7.222 6.667-12.222 6.667-2.222.555-5 0-6.667-1.667zm331.111-5.556c-3.889-6.666-1.666-15 5-18.889 6.667-3.888 15-1.666 18.889 5 3.889 6.667 1.667 15-5 18.889-2.222 1.111-4.444 1.667-7.222 1.667-4.445 0-9.445-2.222-11.667-6.667zM140.556 88.889c-3.889-6.667-1.667-15 5-18.89 6.666-3.888 15-1.666 18.889 5 3.888 6.668 1.666 15-5 18.89-2.223 1.11-4.445 1.666-6.667 1.666-5 .556-9.445-2.222-12.222-6.666zM340 93.333c-6.667-3.889-8.889-12.222-5-18.889 3.889-6.666 12.222-8.889 18.889-5 6.667 3.89 8.889 12.222 5 18.89-2.778 4.444-7.222 6.666-12.222 6.666-2.222.555-5 0-6.667-1.667zM235.556 55.555c0-7.777 6.111-13.889 13.889-13.889 7.777 0 13.888 6.112 13.888 13.89 0 7.777-6.111 13.888-13.888 13.888-7.223 0-13.889-6.11-13.889-13.889z"/>
    <path fill="#B4D66E" d="M250 401.11c-83.333 0-151.11-67.778-151.11-151.111 0-83.334 67.777-151.111 151.11-151.111 83.334 0 151.111 67.777 151.111 151.111 0 83.333-67.777 151.111-151.111 151.111z"/>
    <path fill="#9A3995" d="M250 109.999c77.223 0 140 62.778 140 140 0 77.222-62.777 140-140 140-77.222 0-140-62.778-140-140 0-77.222 62.778-140 140-140zm0-22.222c-89.444 0-162.222 72.778-162.222 162.222 0 89.445 72.778 162.222 162.222 162.222 89.445 0 162.223-72.777 162.223-162.222 0-89.444-72.778-162.222-162.223-162.222z"/>
    <path fill="#E5E5E5" d="M108.664 441.158c-.506 0-.929-.254-1.267-.592-.338-.339-.422-.847-.422-1.355 1.689-10.581 3.548-21.67 5.407-33.182l4.139-25.141 4.731-28.95c.169-.846.845-1.439 1.69-1.439h238.572c.507 0 1.014.254 1.352.677l63.106 87.273c.338.508.423 1.186.169 1.778-.253.593-.844.931-1.52.931H108.664z"/>
    <path fill="#999" d="M361.514 352.192l63.107 87.273H108.665c1.689-10.581 3.548-21.67 5.406-33.182 1.352-8.211 2.704-16.591 4.14-25.141.591-3.724 1.267-7.449 1.858-11.258.93-5.841 1.943-11.766 2.873-17.777h238.572v.085zm0-3.386H122.942c-1.69 0-3.042 1.185-3.295 2.878l-2.112 12.444-.845 5.248c-.591 3.471-1.183 6.941-1.689 10.412l-.169.846-1.268 7.619-2.872 17.522c-1.859 11.512-3.717 22.601-5.407 33.183-.169 1.015.085 1.946.761 2.708.675.762 1.605 1.185 2.534 1.185h316.125c1.268 0 2.45-.677 3.042-1.862.591-1.1.507-2.455-.254-3.555l-63.107-87.273c-.76-.847-1.774-1.355-2.872-1.355z"/>
    <path fill="#E5E5E5" d="M275.935 408.315c-1.267 0-2.534 0-3.632-.085h-.169c-4.478-.169-104.925-.254-157.978-.338-.169 0-.423 0-.592-.085-.76-.254-1.182-1.016-1.098-1.862l4.14-28.442 1.858-12.698c.085-.508.338-.931.76-1.185.254-.169.592-.254.845-.254h150.46c8.025 0 35.059.847 45.788 11.936 3.126 3.301 4.646 7.195 4.562 11.597 0 1.015-.169 1.947-.338 2.878-1.436 6.941-9.124 18.538-44.606 18.538z"/>
    <path fill="#999" d="M270.529 365.144c9.63 0 49.336 1.27 48.66 21.755 0 .931-.169 1.777-.338 2.624-3.041 15.067-28.385 17.183-42.916 17.183-1.267 0-2.534.001-3.632-.084 2.196-.169-158.232-.339-158.232-.339h-.084c1.351-9.311 2.703-18.792 4.139-28.442.592-4.232 1.267-8.465 1.859-12.697h150.544zm0-3.386h-150.46c-.591 0-1.182.169-1.774.508-.845.508-1.436 1.439-1.605 2.37-.591 3.894-1.098 7.788-1.69 11.681l-.168 1.016-1.183 8.465-2.873 19.977c-.253 1.524.676 3.048 2.112 3.64h.085c.422.17.76.254 1.183.254 52.715.085 152.571.17 157.893.339h.254c1.183 0 2.45.084 3.717.084 7.181 0 17.656-.507 26.696-3.132 11.32-3.216 17.91-8.888 19.599-16.845.169-1.015.338-2.031.338-3.132.169-4.909-1.521-9.142-4.984-12.782-10.983-11.258-36.665-12.443-47.14-12.443z"/>
    <path fill="#E5E5E5" d="M270.613 398.157c-1.267 0-2.45-.085-3.632-.17h-.085a24.156 24.156 0 0 1-5.153-1.016c-4.815-1.439-7.603-3.893-7.603-6.771 0-5.164 8.448-7.873 16.389-7.873 7.941 0 16.389 2.794 16.389 7.873 0 3.047-2.957 5.502-8.11 6.941-2.028.508-4.14.846-6.505.931-.507.085-1.098.085-1.69.085z"/>
    <path fill="#999" d="M270.613 384.02c8.11 0 14.7 2.794 14.7 6.18 0 2.201-2.788 4.147-6.928 5.248-1.774.508-3.886.762-6.167.931h-1.689c-1.183 0-2.366-.085-3.464-.169a25.66 25.66 0 0 1-4.815-.931c-3.802-1.101-6.336-2.963-6.336-5.079.084-3.386 6.589-6.18 14.699-6.18zm0-3.386c-4.393 0-8.532.762-11.658 2.117-5.576 2.37-6.336 5.671-6.336 7.533 0 3.725 3.21 6.772 8.786 8.381 1.689.507 3.464.846 5.407 1.015h.084c1.267.085 2.534.17 3.802.17.591 0 1.182 0 1.858-.085 2.45-.085 4.731-.423 6.843-1.016 5.998-1.608 9.377-4.655 9.377-8.549 0-1.778-.844-5.164-6.336-7.534-3.294-1.27-7.434-2.032-11.827-2.032z"/>
    <path fill="#C4C4C4" d="M424.621 439.466h-56.94c19.937-24.21 7.941-44.356-6.167-63.656-10.56-14.475-45.957-23.618-45.957-23.618h45.957l63.107 87.274zM273.739 365.144c17.994 0 39.537 4.825 44.268 15.575-4.985-7.111-22.725-8.38-31.004-8.38-33.286.084-167.694-2.455-167.694-2.455 0-2.37.676-5.418.676-5.418l153.754.678zM270.613 384.021c8.11 0 14.7 2.793 14.7 6.179 0 2.201-2.788 4.148-6.928 5.248v-.169s-1.267-4.656-8.87-4.656c-7.519 0-7.181 4.571-7.181 4.656-3.802-1.101-6.336-2.963-6.336-5.079 0-3.386 6.505-6.179 14.615-6.179z"/>
    <path fill="#E24200" d="M246.367 436.08c-1.774 0-4.646-.254-7.687-.508-3.38-.254-6.843-.593-9.124-.593-4.393 0-20.867 1.016-21.036 1.016h-.084c-.338 0-.676-.085-.93-.254-8.701-5.671-6.842-22.601-6.758-23.363.084-.847.845-1.524 1.69-1.524h.338c1.774 0 11.573-.169 32.778-2.878 3.97-.508 7.857-.762 11.489-.762 15.798 0 22.219 4.995 22.472 5.249.084.084.169.169.253.169.169.169 4.14 4.91 1.183 13.967-2.027 6.264-10.475 9.481-24.584 9.481z"/>
    <path fill="#BB3B0D" d="M247.043 408.992c15.376 0 21.374 4.91 21.374 4.91s3.548 4.063.844 12.274c-2.703 8.211-19.43 8.211-22.894 8.211-3.548 0-12.334-1.016-16.727-1.016-4.477 0-21.204 1.016-21.204 1.016-7.942-5.164-5.998-21.755-5.998-21.755h.337c1.859 0 11.743-.169 33.032-2.878 4.224-.508 7.941-.762 11.236-.762zm0-3.386c-3.633 0-7.603.254-11.658.762-21.12 2.709-30.835 2.878-32.61 2.878h-.253-.084c-1.69 0-3.126 1.27-3.38 2.963-.253 1.947-1.858 18.876 7.519 24.971.507.339 1.183.508 1.859.508h.169c.169 0 16.642-1.016 20.951-1.016 2.196 0 5.66.254 8.955.508 3.041.254 5.998.508 7.772.508 14.868 0 23.908-3.64 26.104-10.581 3.126-9.735-1.014-14.983-1.52-15.576l-.423-.423c-.591-.423-7.265-5.502-23.401-5.502z"/>
    <path fill="#DAAA85" stroke="#AA7959" stroke-linecap="round" stroke-linejoin="round" stroke-miterlimit="10" stroke-width="4" d="M232.851 366.413l-46.211-38.684-43.676-165.489-12.504 5.248s-11.489 6.772-17.318 5.587c-5.829-1.185-8.026-4.487-8.026-8.973 0-4.486-3.463-4.486-3.463-4.486-2.281-3.386 1.182-5.587 1.182-5.587s-4.646 2.285-4.646-2.286c0-4.486-2.281-7.872-2.281-7.872s-9.208-2.286-3.464-11.258c3.886-6.095 4.647-13.46 2.281-16.846-2.027-2.962-5.744-58.323 46.127-57.222 51.87 1.1 62.177 44.864 47.224 76.353 0 0 32.778 21.755 81.861 80.247 49.083 58.493 56.518 91.929 39.791 131.799-16.727 39.87-76.877 19.469-76.877 19.469z"/>
    <path fill="#DAAA85" d="M186.978 313.762s20.444-2.201 41.902 39.107c23.401 44.949 30.835 49.774 30.835 49.774s9.293 8.38 3.717 19.469c-5.575 11.089-24.077 4.656-24.077 4.656s-7.434-2.793-13.854 0c-6.505 2.794-17.572 5.587-29.653 1.862-12.081-3.724-15.713-10.327-7.434-13.12 8.363-2.794 20.275-5.502 26.78-13.798 0 0 2.788-4.656-2.788-8.38-5.575-3.725-44.099-36.992-54.236-46.303-10.138-9.312-31.511-32.506-32.441-44.526-.929-12.105 7.435-28.78 28.724-26.918 21.289 1.862 38.185-4.825 114.133 26.749"/>
    <path stroke="#AA7959" stroke-linecap="round" stroke-linejoin="round" stroke-miterlimit="10" stroke-width="4" d="M186.978 313.762s20.444-2.201 41.902 39.107c23.401 44.949 30.835 49.774 30.835 49.774s9.293 8.38 3.717 19.469c-5.575 11.089-24.077 4.656-24.077 4.656s-7.434-2.793-13.854 0c-6.505 2.794-17.572 5.587-29.653 1.862-12.081-3.724-15.713-10.327-7.434-13.12 8.363-2.794 20.275-5.502 26.78-13.798 0 0 2.788-4.656-2.788-8.38-5.575-3.725-44.099-36.992-54.236-46.303-10.138-9.312-31.511-32.506-32.441-44.526-.929-12.105 7.435-28.78 28.724-26.918 21.289 1.862 38.185-4.825 114.133 26.749"/>
    <path fill="#DAAA85" d="M165.266 157.838s-23.147 1.862-24.077 25.987c-.929 24.125 7.435 57.223 7.435 57.223s-36.58 7.449-44.944 11.174c-8.363 3.724-20.36 13.036-20.36 13.036s-12.08 17.607-9.292 23.194c2.787 5.586 7.434.931 7.434.931s6.505-10.243 14.784-11.174c8.363-.931 11.151-2.793 14.784-8.38 0 0-2.281-3.725 32.018 3.724s32.947-.677 37.087-9.311c6.674-14.052 9.039-51.975 6.505-80.248"/>
    <path stroke="#AA7959" stroke-linecap="round" stroke-linejoin="round" stroke-miterlimit="10" stroke-width="4" d="M165.266 157.838s-23.147 1.862-24.077 25.987c-.929 24.125 7.435 57.223 7.435 57.223s-36.58 7.449-44.944 11.174c-8.363 3.724-20.36 13.036-20.36 13.036s-12.08 17.607-9.292 23.194c2.787 5.586 7.434.931 7.434.931s6.505-10.243 14.784-11.174c8.363-.931 11.151-2.793 14.784-8.38 0 0-2.281-3.725 32.018 3.724s32.947-.677 37.087-9.311c6.674-14.052 9.039-51.975 6.505-80.248"/>
    <path fill="#E24200" d="M206.577 436.334c-4.984 0-9.546-.593-12.925-1.524-2.281-.677-9.969-3.386-12.672-9.65-1.436-3.386-1.099-7.11.929-11.089 5.576-10.75 26.865-12.528 27.794-12.528h.169c.591 0 1.183.339 1.436.846.338.593.254 1.27-.084 1.778-3.464 4.994-1.014 17.522.253 21.924 1.014 3.132 4.309 7.026 4.309 7.026.422.508.506 1.101.253 1.693-.253.593-.76 1.016-1.352 1.016a65.297 65.297 0 0 1-8.11.508z"/>
    <path fill="#BB3B0D" d="M209.872 403.067c-4.647 6.772 0 23.363 0 23.363 1.183 3.555 4.646 7.703 4.646 7.703-2.788.338-5.491.508-7.941.508-5.238 0-9.546-.677-12.418-1.524-5.323-1.608-16.474-7.11-10.645-18.369 5.153-10.073 26.358-11.681 26.358-11.681zm0-3.386h-.338c-.591.084-5.914.508-11.827 2.201-8.871 2.454-14.615 6.264-17.234 11.258-2.873 5.587-2.112 9.904-1.014 12.528 2.957 6.941 11.236 9.904 13.686 10.666 3.548 1.016 8.279 1.608 13.432 1.608 2.704 0 5.576-.169 8.364-.508 1.267-.169 2.281-.931 2.788-2.116.422-1.185.253-2.455-.507-3.386-.845-1.016-3.211-4.148-3.971-6.518-1.605-5.841-3.126-16.422-.507-20.4.423-.593.676-1.27.676-1.947-.169-1.863-1.605-3.386-3.548-3.386.084 0 0 0 0 0z"/>
</svg>
