<svg xmlns="http://www.w3.org/2000/svg" width="315" height="301" fill="none" viewBox="0 0 315 301">
    <path fill="#DAAA85" d="M161.604 91.991c-2.205 6-4.135 12.413-3.17 18.757l-2.413.207a45.169 45.169 0 0 0-9.029-2.621c-7.996-1.31-17.37.828-25.158 3.103a205.492 205.492 0 0 0 15.026-7.585c6.961-7.31 9.856-16.964 16.956-21.929l-.207-.276c3.929-11.93 13.441-40.823 29.225-29.859a170.014 170.014 0 0 0-21.23 40.203z"/>
    <path fill="#DAAA85" d="M60.489 71.717c7.926 5.172 11.304 15.93 10.339 26.963-.552 6.413-.07 14.55.275 22.274.276 6.413 5.377 13.86 5.377 13.86 17.92-13.171 29.362-16.067 45.422-23.308 7.789-2.275 17.163-4.482 25.159-3.103a45.188 45.188 0 0 1 9.029 2.621c7.237 2.896 13.854 7.516 20.196 12.343 3.791-19.308 14.681-36.41 26.054-52.477 3.309-4.69 7.582-8.482 12.2-11.861 6.617-4.896 18.335-4.69 14.957 4.137 0 0-17.369 40.065-20.402 50.34-3.033 10.275-3.171 18.826-3.171 18.826-2.55 13.93-14.13 24.067-25.02 33.031-14.613 12.068-29.225 24.136-43.838 36.135 0 0-41.356 78.888-78.37 35.169-4.273-5.103-7.581-10.827-10.407-16.826-1.103-2.69-2.275-5.379-3.378-8-7.1-16.757-13.096-31.859-13.096-31.859-3.377-9.171-2.137-19.446.345-28.893 2.55-9.448 6.272-18.55 8.064-28.204 2.826-15.585.138-32.066-7.513-45.927-1.792-3.241-.551-7.379 2.757-9.034 7.72-3.792 16.887-1.517 25.02 3.793zM44.842 211.773c1.103 2.62 2.275 5.309 3.378 7.999-1.241-2.621-2.344-5.31-3.378-7.999z"/>
    <path fill="#DAAA85" d="M219.434 36.686c.689 4.482-4.48 17.722-4.963 22.205-4.618 3.379-8.891 7.172-12.2 11.86-11.373 16.068-22.263 33.17-26.054 52.478-6.341-4.827-12.958-9.447-20.196-12.343l2.413-.207c-.965-6.344.965-12.758 3.17-18.757a170.013 170.013 0 0 1 21.23-40.203 232.642 232.642 0 0 1 6.203-8.206c5.583-6.965 12.89-13.999 21.85-13.999 2.688 0 5.652.759 7.168 3.035.828 1.172 1.172 2.689 1.379 4.137z"/>
    <path stroke="#AA7959" stroke-linecap="round" stroke-linejoin="round" stroke-miterlimit="10" stroke-width="4" d="M121.765 111.437h.137c7.789-2.275 17.163-4.482 25.159-3.103a45.188 45.188 0 0 1 9.029 2.621c7.237 2.896 13.854 7.516 20.196 12.343 1.309 1.035 2.55 2 3.86 3.035"/>
    <path stroke="#AA7959" stroke-linecap="round" stroke-linejoin="round" stroke-miterlimit="10" stroke-width="4" d="M158.847 79.44a16.623 16.623 0 0 0-4.963 2.414c-7.099 4.965-9.994 14.62-16.956 21.929-5.514 3.103-10.476 5.517-15.026 7.585-16.06 7.241-27.501 10.206-45.422 23.309 0 0-5.101-7.448-5.377-13.861-.275-7.793-.758-15.861-.275-22.274.896-10.964-2.413-21.79-10.34-26.963-8.133-5.172-17.3-7.447-24.95-3.586-3.31 1.655-4.55 5.793-2.758 9.034 7.582 13.86 10.339 30.342 7.513 45.927-1.792 9.585-5.514 18.756-8.064 28.204-2.55 9.447-3.723 19.722-.345 28.893 0 0 5.997 15.033 12.958 31.79 1.103 2.621 2.275 5.31 3.378 8 0 0 13.785 33.169 37.772 29.859 23.986-3.31 43.837-35.859 51.005-48.202 14.613-12.068 29.225-24.136 43.838-36.135 10.89-8.964 22.47-19.17 25.02-33.031 0 0 .138-8.551 3.171-18.826 2.964-10.275 20.402-50.34 20.402-50.34 3.378-8.895-8.34-9.033-14.957-4.137-4.618 3.379-8.891 7.171-12.2 11.86-11.373 16.068-22.263 33.17-26.054 52.478-.069.138-.069.276-.069.345M153.609 81.578c3.929-11.93 13.44-40.823 29.225-29.859"/>
    <path stroke="#AA7959" stroke-linecap="round" stroke-linejoin="round" stroke-miterlimit="10" stroke-width="4" d="M158.434 110.679c-.965-6.344.965-12.758 3.17-18.757a170.013 170.013 0 0 1 21.23-40.203 232.642 232.642 0 0 1 6.203-8.206c5.583-6.965 12.889-13.999 21.85-13.999 2.688 0 5.652.759 7.168 3.035.827 1.24 1.172 2.689 1.379 4.137.689 4.482-4.48 17.722-4.963 22.205M99.019 201.153c-6.273-8.206-3.722-20.412 2.067-28.963 16.06-23.722 50.386-28.135 68.996-49.926"/>
    <path fill="#DAAA85" d="M135.205 145.02c-.965-2.689-1.861-6.137-2.55-10.55.965 4.482 1.792 7.93 2.55 10.55z"/>
    <path fill="#9CEFE8" d="M83.303 169.57c-10.407 0-20.54-1.517-30.12-4.621-.62-.206-.966-.758-.966-1.379 0-.62.414-1.172 1.034-1.31a574.76 574.76 0 0 1 30.949-6.827c-31.362-3.517-50.317-12.275-77.819-29.1-4.204-2.552-5.859-5.655-4.48-8.551.207-.414.62-.759 1.103-.759 1.93-.207 3.929-.276 5.996-.276 7.651 0 15.095 1.31 23.367 2.897 10.752 2.068 17.645 3.172 23.71 4.137 8.134 1.31 14.75 2.345 27.089 5.172-12.89-10.62-24.194-22.825-33.568-36.341-.276-.414-.344-.897-.138-1.38.207-.413.62-.758 1.103-.758.758-.069 1.517-.069 2.275-.069 6.686 0 12.89 2.552 18.748 5.24 12.89 5.931 25.227 12.413 37.634 19.102-5.101-6.758-7.375-13.929-6.824-21.239.069-.827.207-2.482 1.517-3.517.689-.551 1.654-.896 2.757-.896.413 0 .896.069 1.447.138 7.582 1.103 14.613 6.55 20.816 11.792-6.479-11.585-12.545-26.894-12.476-39.583 0-.62.414-1.172 1.034-1.31a7.943 7.943 0 0 1 1.792-.207c3.791 0 6.686 3.103 8.547 5.379 4.894 6.137 9.857 12.344 14.682 18.412-8.203-23.24-15.991-49.03-11.925-75.51.827-4.827 3.033-6.275 4.756-6.62.276-.069.621-.069.965-.069 2.275 0 3.998 1.655 5.101 2.896 11.235 12.965 16.129 29.377 21.022 47.927 1.172 4.413 1.999 7.447 2.62 9.999 1.378 5.172 2.205 8.206 4.204 16.48 2.482-2.964 4.963-5.999 7.444-8.964 3.033-3.654 6.066-7.24 9.03-10.895.275-.345.62-.483 1.034-.483h.206c.483.069.896.414 1.034.828 3.722 9.378 3.033 21.032-1.999 32.686-4.893 11.309-13.027 21.239-19.575 28.618-9.787 11.033-20.54 21.446-32.051 30.893-4.411 3.586-9.65 7.724-15.577 10.758-7.031 3.655-15.302 5.862-25.228 6.896-3.446.276-6.892.414-10.27.414z"/>
    <path fill="#64D8D6" d="M136.17 2.758c1.655 0 3.033 1.242 4.067 2.414 11.442 13.24 16.267 30.549 20.678 47.375 3.722 14.343 3.929 14.274 7.375 28.687l.276.137c6.066-7.24 12.062-14.481 18.128-21.722 3.86 9.793 2.481 21.309-1.999 31.653-4.412 10.274-11.649 19.584-19.3 28.273-9.787 11.033-20.471 21.308-31.913 30.755-4.825 3.931-9.719 7.793-15.302 10.62-7.719 3.93-16.266 5.861-24.744 6.758-3.378.345-6.755.483-10.064.483-10.2 0-20.264-1.518-29.707-4.552 13.51-3.379 27.088-6.275 40.667-8.62C57.18 152.33 37.26 143.641 7.139 125.16c-2.55-1.517-5.307-4.068-3.997-6.827 1.93-.207 3.86-.276 5.858-.276 7.789 0 15.509 1.449 23.09 2.897 27.227 5.31 29.846 4.275 56.728 10.757-14.75-11.378-27.64-24.825-38.117-39.858.758-.069 1.447-.069 2.206-.069 6.479 0 12.475 2.483 18.127 5.103 15.233 6.965 29.846 14.826 44.458 22.825-7.237-7.102-12.475-15.86-11.717-26.066.069-.965.206-1.93 1.034-2.551.551-.414 1.171-.552 1.861-.552.413 0 .827.069 1.24.138 9.857 1.379 18.955 10.826 26.33 16.619-8.96-13.654-16.473-32.066-16.473-45.72a5.242 5.242 0 0 1 1.447-.207c3.033 0 5.583 2.552 7.444 4.896 6.617 8.275 13.165 16.55 19.782 24.757-9.443-26.412-19.023-53.926-14.543-82.613.345-2.207 1.309-5.034 3.653-5.517.207-.138.414-.138.62-.138zm0-2.758c-.413 0-.827.069-1.24.138-4.067.827-5.446 5.24-5.859 7.723-3.722 24.067 2.206 47.306 9.374 68.683-3.24-4.068-6.479-8.137-9.719-12.136-2.068-2.552-5.238-5.93-9.581-5.93-.689 0-1.447.068-2.136.275-1.241.345-2.068 1.38-2.068 2.69 0 6.757 1.723 14.963 5.032 23.79 1.309 3.448 2.826 7.034 4.549 10.482-5.032-3.793-10.477-7.103-16.336-7.93-.551-.07-1.103-.138-1.585-.138-1.448 0-2.688.413-3.653 1.172-1.792 1.448-1.93 3.586-1.999 4.482-.483 6 .896 11.861 4.066 17.516-10.821-5.793-21.643-11.378-32.878-16.55-5.927-2.69-12.338-5.31-19.3-5.31-.826 0-1.654.069-2.412.138a2.764 2.764 0 0 0-2.274 1.586 2.818 2.818 0 0 0 .206 2.758c8.41 12.137 18.335 23.17 29.57 32.962-9.03-1.93-14.82-2.896-21.712-3.999-6.065-.966-12.958-2.069-23.642-4.138-8.34-1.586-15.853-2.965-23.642-2.965-2.067 0-4.135.069-6.134.276-.965.069-1.792.69-2.206 1.586-1.654 3.586.207 7.448 5.032 10.344 25.158 15.447 43.217 24.066 70.099 28.204-7.651 1.586-15.302 3.31-22.884 5.241-1.172.276-2.068 1.379-2.068 2.62-.069 1.242.758 2.345 1.93 2.69 9.719 3.103 19.989 4.689 30.534 4.689 3.447 0 6.893-.138 10.34-.483 10.132-1.034 18.541-3.31 25.709-7.034 6.066-3.103 11.304-7.24 15.784-10.895 11.58-9.516 22.402-19.998 32.258-31.032 6.617-7.447 14.82-17.515 19.782-28.962 5.17-12 5.859-23.998 1.999-33.79-.345-.897-1.172-1.586-2.137-1.724-.137 0-.275-.069-.413-.069-.827 0-1.585.345-2.137.965-3.033 3.655-6.065 7.241-9.029 10.896-1.93 2.276-3.791 4.62-5.721 6.896a701.493 701.493 0 0 0-3.584-13.861 388.015 388.015 0 0 1-2.62-9.999c-4.893-18.688-9.856-35.307-21.298-48.478-.62-.828-2.826-3.379-5.997-3.379z"/>
    <path fill="#9CEFE8" d="M92.402 85.233a8.307 8.307 0 0 1-2.895-.552c-6.893-2.275-11.787-8.206-12.614-15.102 0-.275 0-.482.138-.758 1.379-2.896 3.377-4.344 6.066-4.344 1.792 0 3.584.69 4.962 1.31 3.653 1.655 6.135 4.827 7.927 7.378 1.172 1.724 2.206 3.586 2.274 5.793.07 2.276-1.31 5.034-3.997 5.93-.69.207-1.24.345-1.861.345z"/>
    <path fill="#64D8D6" d="M83.028 65.856c1.447 0 2.963.551 4.411 1.172 3.17 1.448 5.445 4.137 7.375 6.896 1.034 1.517 2 3.172 2 5.034.068 1.862-1.104 3.93-3.103 4.62a4.327 4.327 0 0 1-1.31.207c-.826 0-1.722-.207-2.48-.483-6.342-2.138-10.96-7.585-11.65-13.93 1.172-2.62 2.896-3.516 4.757-3.516zm0-2.759c-2.206 0-5.308.897-7.307 5.172-.206.483-.275.966-.275 1.517.896 7.379 6.203 13.792 13.51 16.206h.068c.828.275 2 .62 3.309.62.758 0 1.516-.138 2.206-.344 3.377-1.104 5.031-4.552 4.962-7.31-.069-2.552-1.24-4.62-2.481-6.482-1.861-2.759-4.55-6.069-8.547-7.862-1.448-.758-3.377-1.517-5.445-1.517z"/>
    <path fill="#FFC5FA" d="M240.801 190.05l.345-.551c.482.345 1.447-.069 1.516-.828.069-.827-.689-1.517-1.378-2.068-27.02-21.86-59.071-38.962-78.301-67.925-1.103 2.621-.965 5.793.276 8.344 1.033 2.138 2.826 3.862 4.618 5.448a574.401 574.401 0 0 0 72.924 57.58zm30.121 51.926c-2.412 4.621-7.582 6.896-12.407 8.896-5.238 2.207-10.408 4.345-15.577 6.551-3.171 1.31-6.479 2.69-9.857 2.138-3.101-2.758-108.008-87.647-110.696-90.819-2.826-3.379-6.479-10.964-7.996-15.102-2.205-6.275-2.619-7.999-1.93-14.619 2.344-22.619 6.204-45.168 13.855-66.545.551-1.517 1.103-2.966 2.068-4.207 1.309-1.586 3.239-2.62 5.169-3.517 3.86-1.93 7.858-3.861 12.062-4.827 1.999-.413 4.136-.551 6.135-.138 2.481 1.242 4.756 2.965 6.961 4.759 31.845 25.1 63.689 50.201 95.533 75.233 4.825 3.793 9.788 7.724 12.82 13.103 3.585 6.344 4.067 13.929 4.481 21.17.896 19.033 1.378 38.065 1.309 57.167-.069 3.655-.207 7.516-1.93 10.757zm-15.646-2.965c1.585 1.173 3.791 2.414 5.376 1.173 2.275-1.724-.207-5.241-2.55-6.896-34.877-24.688-77.405-53.03-106.837-84.061-5.376-5.31 0-39.169-4.756-40.272-3.584-.828-3.308 38.617-2.826 42.272.207 1.586 1.517 2.689 2.757 3.654a4399.46 4399.46 0 0 0 108.836 84.13zm-3.309-68.131c-.896 2.413-.551 5.172.828 7.31 2.963-5.793 1.378-13.034-2.344-18.412-3.722-5.31-9.167-9.103-14.613-12.689-8.271-5.379-16.68-10.62-24.331-16.826-6.479-5.241-12.338-11.171-18.679-16.55-10.477-8.965-22.263-16.412-34.808-22.067 24.056 21.584 48.18 43.306 75.613 60.546 7.582 4.689 16.198 10.137 18.334 18.688z"/>
    <path fill="#FCB9F9" d="M233.081 259.561c-2.481-.414-4.618-1.724-6.754-3.103-19.093-12.413-36.601-27.032-54.108-41.582-19.299-16.068-38.599-32.066-57.898-48.134-2.551-2.137-5.239-4.344-6.617-7.447-1.448-3.172-1.31-6.689-1.034-10.137.551-7.103 1.93-14.206 3.239-21.239 3.309-17.654 6.548-35.376 9.926-53.03.827-4.344 3.101-7.447 7.788-9.24 5.859-4.276 12.683-8.758 19.851-7.448 1.517.276 2.964.828 4.343 1.517-1.93-.482-4.136-.345-6.135.138-4.204.897-8.202 2.896-12.062 4.827-1.861.966-3.86 1.931-5.169 3.517-.965 1.242-1.586 2.759-2.068 4.207-7.72 21.377-11.511 43.995-13.855 66.545-.689 6.62-.275 8.344 1.93 14.619 1.517 4.138 5.17 11.723 7.996 15.102 2.619 3.31 107.526 88.13 110.627 90.888z"/>
    <path fill="#FFE9FE" d="M260.652 240.252c-1.585 1.173-3.791 0-5.376-1.172-36.669-27.514-72.925-55.512-108.836-84.13-1.24-.965-2.55-2.137-2.757-3.654-.482-3.655-.689-43.1 2.826-42.272 4.756 1.103-.62 35.031 4.756 40.272 29.432 30.962 71.96 59.373 106.837 84.061 2.343 1.655 4.825 5.103 2.55 6.895z"/>
    <path fill="#FFC5FA" d="M241.146 189.568l-.345.551c-25.778-17.17-50.178-36.479-72.924-57.58-1.723-1.655-3.515-3.31-4.618-5.448-1.241-2.551-1.379-5.724-.276-8.344 19.162 28.963 51.282 46.065 78.301 67.924.689.552 1.378 1.242 1.378 2.069-.069.69-1.034 1.172-1.516.828z"/>
    <path fill="#FCB9F9" d="M251.967 170.88c-2.205-8.551-10.752-13.93-18.403-18.757-27.364-17.171-51.557-38.893-75.613-60.546 12.545 5.655 24.331 13.102 34.808 22.067 6.342 5.379 12.2 11.378 18.679 16.55 7.651 6.207 16.129 11.447 24.332 16.826 5.445 3.517 10.89 7.31 14.612 12.689 3.722 5.309 5.308 12.619 2.344 18.412-1.31-2.138-1.586-4.896-.759-7.241z"/>
    <path stroke="#EF67CB" stroke-miterlimit="10" stroke-width="4" d="M127.486 65.649c5.858-4.276 12.682-8.758 19.85-7.448 1.517.276 2.964.828 4.343 1.517 2.481 1.242 4.756 2.966 6.962 4.758a92262.063 92262.063 0 0 0 95.532 75.235c4.825 3.792 9.788 7.723 12.821 13.102 3.584 6.344 4.066 13.929 4.48 21.17.896 19.033 1.378 38.065 1.309 57.167 0 3.655-.069 7.516-1.861 10.826-2.412 4.621-7.582 6.896-12.406 8.896-5.239 2.207-10.408 4.344-15.578 6.551-3.171 1.31-6.479 2.69-9.856 2.138-2.482-.414-4.619-1.724-6.755-3.103-19.093-12.413-36.6-27.032-54.108-41.582-19.299-16.068-38.599-32.066-57.898-48.134-2.551-2.137-5.239-4.344-6.617-7.447-1.448-3.172-1.31-6.689-1.034-10.137.551-7.103 1.93-14.206 3.239-21.239 3.309-17.654 6.548-35.376 9.926-53.03.689-4.344 2.964-7.447 7.651-9.24z"/>
    <path fill="#FFE9FE" d="M181.938 130.815c.551-4.62 1.585-9.241-1.31-13.309-1.378-1.931-3.239-3.379-5.169-4.758-.414-.276-1.172-1.035-1.724-.759-.413.207-.413.69-.206 1.034.275.414.896.069.689-.344.414.62 1.379 1.103 1.999 1.586.689.551 1.447 1.103 2.068 1.724 1.378 1.31 2.55 2.896 3.17 4.689 1.103 3.172.207 6.896-.206 10.137-.138.483.62.483.689 0zM170.634 132.47c3.101 1.241 6.617 3.034 7.375 6.689.345 1.655-.414 3.172-1.034 4.689a188.573 188.573 0 0 1-2.343 5.517c-.207.414.551.689.689.207.965-2.276 1.93-4.483 2.826-6.758.62-1.517.827-2.966.344-4.552-1.171-3.517-4.48-5.24-7.719-6.551-.414-.207-.621.552-.138.759zM166.223 141.297a31.13 31.13 0 0 0 4.135 3.31c.414.275.827-.345.414-.621-1.448-.896-2.757-2-3.998-3.172-.345-.414-.896.138-.551.483zM194.827 133.573c5.445 2.276 9.098 7.793 8.754 13.723-.345 5.379-3.378 10.206-3.722 15.585-.069.482.758.551.758 0 .414-6.069 4.136-11.378 3.722-17.585-.414-5.516-4.205-10.344-9.305-12.481-.414-.207-.62.551-.207.758zM189.382 142.469c-.345 1.448-.689 2.827-1.103 4.206-.345 1.242-.758 2.483-.896 3.793-.207 2.276 1.31 4.207 2.619 5.862.345.344.896-.138.552-.552-1.586-1.931-2.826-3.793-2.206-6.413.551-2.276 1.172-4.483 1.723-6.758.207-.414-.551-.69-.689-.138zM214.058 150.192c1.861 1.724 4.687 2.069 5.79 4.483.758 1.586.689 3.379.758 5.102.069 1.518.138 3.035.207 4.621.206 5.999.758 12.137-.345 18.136-.069.483.62.69.689.207 1.172-6.344.552-12.896.345-19.309-.138-2.896.207-6.206-.896-8.895-1.172-2.759-3.998-3.035-5.997-4.896-.345-.276-.896.275-.551.551zM212.817 159.226c-.482.552-1.034 1.103-1.585 1.655-.276.276-.69.552-.69 1.034-.068.966 1.379 1.724 1.999 2.276.414.276.758-.345.414-.621l-1.034-.827c-.138-.138-.276-.207-.414-.345-.206-.276-.137-.414.069-.621.483-.689 1.172-1.241 1.723-1.862.414-.482-.137-1.034-.482-.689zM208.612 167.777c-1.24 1.793-2.55 3.517-3.791 5.241-.275.413.345.758.621.413 1.24-1.793 2.55-3.517 3.791-5.24.344-.414-.345-.828-.621-.414z"/>
    <path fill="#FCB9F9" d="M175.803 126.677c.827-2.965-.275-6.137-2.343-8.344-.345-.344-.896.138-.552.552 1.861 1.931 2.964 4.896 2.206 7.585-.138.414.551.621.689.207zM170.22 137.435c1.31.552 2.55 1.448 1.792 2.965-.482.966-1.309 1.862-1.93 2.759-.275.413.345.827.621.413.62-.896 1.378-1.793 1.93-2.758.275-.414.413-.828.413-1.379-.069-1.448-1.447-2.276-2.619-2.759-.483-.207-.689.552-.207.759zM165.602 113.851c-1.241 2-2.481 4.137-2.619 6.551-.138 3.034 1.654 5.931 2.826 8.62.207.414.896.069.689-.345-1.103-2.551-2.895-5.379-2.757-8.206.138-2.276 1.31-4.275 2.482-6.137.275-.483-.345-.897-.621-.483zM160.57 136.263c-.62 1.793-1.033 3.792-.896 5.654.069 1.862 1.241 3.034 2.482 4.276 1.516 1.448 3.101 2.896 4.687 4.206.965.759 2.55 2.552 3.929 1.724.413-.207.069-.896-.345-.689-1.103.62-3.929-2.345-4.618-2.897a52.326 52.326 0 0 1-3.515-3.241c-1.31-1.31-1.999-2.482-1.93-4.344.069-1.586.413-3.034.896-4.551.207-.345-.552-.621-.69-.138zM194.827 142.676c2.137 1.034 2.964 3.724 2.757 5.93a13.15 13.15 0 0 1-.827 3.241c-.207.552-.345 1.104-.551 1.655-.069.207-.896 2.276-1.034 2.138-.276-.414-.827.138-.552.552.552.758 1.241.138 1.586-.483.482-.896.689-2.069 1.034-3.034.344-.897.62-1.793.827-2.759.62-2.827 0-6.482-2.895-7.861-.414-.207-.827.483-.345.621zM185.591 136.676c-.965 2.621-1.93 5.241-2.826 7.862-.689 2.137-1.172 4.344-.827 6.551.344 2.551 1.585 4.896 2.964 7.034.758 1.103 2.205 4.206 3.929 3.723.482-.138.275-.896-.138-.758-1.103.345-2.344-2.069-2.757-2.759-.621-.965-1.241-1.93-1.792-2.896-1.034-2-1.724-4.137-1.586-6.413.138-1.862.689-3.724 1.31-5.517.758-2.206 1.585-4.413 2.412-6.62.207-.414-.551-.62-.689-.207zM211.507 152.537c-2.55 3.241-5.1 6.482-7.582 9.723-1.24 1.586-2.412 3.103-3.653 4.689-.413.552-1.378 1.517-.344 1.931.138.069.275 0 .413-.069l.069-.069c.345-.345-.138-.896-.551-.551.275.068.482 0 .551-.207.069-.138.207-.276.276-.414.276-.345.551-.621.758-.966.551-.62 1.034-1.31 1.516-1.93 1.034-1.311 2.068-2.621 3.033-3.931a596.992 596.992 0 0 0 6.066-7.792c.344-.414-.276-.828-.552-.414zM211.232 168.742c.551 1.586 1.999 2.138 3.032 3.31.828.897.965 2.138 1.241 3.31.207 1.035.483 2.069.689 3.103.138.483.828.345.759-.138-.414-1.861-.621-3.999-1.379-5.723-.827-1.724-2.895-2.276-3.584-4.069-.207-.413-.896-.275-.758.207zM215.436 158.26c-.138 2.414-.413 4.759-.896 7.103-.069.483.621.69.689.207.483-2.413.828-4.827.897-7.31.068-.482-.69-.482-.69 0zM225.706 187.223a88.476 88.476 0 0 1 9.443-23.584c-.138.069-.275.069-.413.138.275.138.551.207.896.276.482.138.689-.552.207-.69-.276-.138-.552-.206-.897-.275-.137-.069-.344 0-.413.137-4.274 7.379-7.513 15.378-9.512 23.722-.138.552.551.828.689.276zM234.805 182.189c0-.069 3.86 1.035 4.342 1.035 1.172.069 2.826.069 3.722-.828.138-.138.138-.276.069-.414 0-.069-.069-.069-.069-.138a.379.379 0 0 0-.345-.206h-.137c-.483-.069-.483.758 0 .758-.069 0-.138-.069-.138-.069 0-.138.069-.276.069-.414-1.379 1.311-4.274.552-5.79.069-.689-.207-1.999-1.034-2.482-.138-.069.345.552.759.759.345z"/>
    <path fill="#FFE9FE" d="M239.698 165.432c1.172 2.207 3.447 3.448 4.756 5.586 1.517 2.413.69 5.379 0 7.93-.137.483.621.69.69.207.689-2.414 1.378-5.103.413-7.586-1.103-2.689-3.929-3.999-5.238-6.482-.138-.413-.827-.069-.621.345zM231.703 186.189c-.62 1.379-.551 3.448-1.999 4.344-.413.276-.069.897.345.69 1.654-1.035 1.516-2.965 2.274-4.552.207-.482-.482-.896-.62-.482z"/>
    <path fill="#FCB9F9" d="M238.94 170.466c.345.621.827 1.104 1.172 1.655.414.759.551 1.655.689 2.414.138.62.207 1.31.069 1.931-.069.413-.413.758-.413 1.241 0 .207.137.414.344.414h.069c.207 0 .345-.138.414-.345v-.069c.069-.483-.69-.483-.758 0v.069c.137-.138.275-.276.413-.345h-.069c.138.138.276.276.345.414 0-.276.344-.897.413-1.173.138-.689 0-1.379-.069-1.999-.137-.759-.275-1.517-.551-2.207-.345-.896-.965-1.448-1.447-2.276-.207-.551-.828-.138-.621.276z"/>
    <path fill="#FFE9FE" d="M235.839 171.363c-.621 1.172-1.724 2.896-1.862 4.275-.068 1.379 1.172 2 2.275 2.414.483.207.689-.552.207-.69-.483-.207-1.103-.345-1.379-.759-.62-.758-.138-1.448.138-2.137.345-.897.827-1.793 1.31-2.69.207-.413-.414-.827-.689-.413z"/>
    <path fill="#DAAA85" d="M311.934 152.261c-3.171-14.205-17.921-12.688-17.921-12.688l-10.408 3.448a25.593 25.593 0 0 0-3.791 2.827c0-16.757-4.963-23.377-14.475-24.618-8.547-1.104-14.681 10.55-15.095 11.378 0-9.792-2.274-18.619-8.754-20.481-9.098-2.689-12.131.552-21.643 11.102-6.685 7.379-14.819 29.377-19.437 42.962 0 0-8.823 30.617-14.957 35.927-6.548 5.724-17.507 8.896-27.364 2.483-4.618-3.034-9.994-6.344-13.923-10.137-1.517 3.379-1.999 5.585-1.861 7.999.551 9.654 2.55 22.067 5.996 43.72.965 4.482 1.792 7.93 2.551 10.551 2.205 6.206 4.411 8.344 4.411 8.344 32.051 48.34 82.712 30.824 82.712 30.824 19.093-5.31 43.148-28.963 55.555-41.927 12.407-12.964 15.164-25.446 15.922-38.203.69-12.757 5.652-49.374 2.482-63.511z"/>
    <path stroke="#AA7959" stroke-linecap="round" stroke-linejoin="round" stroke-miterlimit="10" stroke-width="4" d="M247.005 174.466s.138-16.619 2.205-29.928c.621-3.862.965-7.931.965-11.861M250.175 132.677c.483-.897 6.548-12.551 15.164-11.447 9.443 1.241 14.406 7.861 14.475 24.618 0 1.931-.069 4.068-.207 6.275-.689 11.309-.276 22.343.276 30.204.482 6.965 1.034 11.447 1.034 11.447M292.358 149.985s-10.339 26.825-12.475 32.411"/>
    <path stroke="#AA7959" stroke-linecap="round" stroke-linejoin="round" stroke-miterlimit="10" stroke-width="4" d="M250.175 132.677c0-9.792-2.274-18.619-8.753-20.481-9.099-2.689-12.132.552-21.643 11.102-6.686 7.379-14.82 29.377-19.438 42.962-1.999 5.792-3.308 10.068-3.515 10.964 0 0-6.203 21.239-11.373 24.963-8.547 7.31-16.611 6.207-21.781 5.103-5.238-1.172-19.575-12.826-19.575-12.826s-1.93 4.275-1.861 7.999c.551 9.654 1.516 22.274 5.996 43.72.965 4.482 1.793 7.93 2.551 10.551 10.27 22.687 38.806 51.788 87.123 39.237 19.093-5.31 43.149-28.963 55.555-41.927 12.407-12.964 15.164-25.446 15.922-38.203.759-12.757 5.515-49.305 2.482-63.58-2.757-13.171-16.06-13.861-20.954-12.688-4.273 1.034-11.235 6.344-11.235 6.344"/>
    <path stroke="#AA7959" stroke-linecap="round" stroke-linejoin="round" stroke-miterlimit="10" stroke-width="4" d="M234.322 181.913c5.239-1.241 15.302-3.517 24.607 7.379 3.722 4.344 10.753 5.93 14.406 5.448 3.653-.483 10.546 1.586 14.543 6.827"/>
</svg>
