<svg xmlns="http://www.w3.org/2000/svg" width="501" height="501" fill="none" viewBox="0 0 501 501">
    <path fill="#993895" d="M250 488.889c131.935 0 238.889-106.954 238.889-238.889S381.935 11.111 250 11.111 11.111 118.065 11.111 250 118.065 488.889 250 488.889z"/>
    <path fill="#DF4827" d="M250 22.222c125.556 0 227.778 102.222 227.778 227.778S375.556 477.778 250 477.778 22.222 375.556 22.222 250 124.444 22.222 250 22.222zM250 0C112.222 0 0 112.222 0 250c0 137.778 112.222 250 250 250 137.778 0 250-112.222 250-250C500 112.222 387.778 0 250 0z"/>
    <path fill="#B4D66E" d="M250 466.667l-53.333-53.334L122.778 425l-11.667-73.889-67.222-34.444L77.778 250l-33.889-66.667 67.222-34.444 11.667-73.89 73.889 11.668L250 33.333l53.334 53.334L377.222 75l11.667 73.889 67.222 34.444L422.222 250l33.889 66.667-67.222 34.444L377.222 425l-73.888-11.667L250 466.667z"/>
    <path fill="#41C6F2" d="M250 401.111c83.457 0 151.111-67.655 151.111-151.111 0-83.456-67.654-151.111-151.111-151.111-83.456 0-151.111 67.655-151.111 151.111 0 83.456 67.655 151.111 151.111 151.111z"/>
    <path fill="#405BA8" d="M250 110c77.223 0 140 62.778 140 140 0 77.222-62.777 140-140 140-77.222 0-140-62.778-140-140 0-77.222 62.778-140 140-140zm0-22.222c-89.444 0-162.222 72.778-162.222 162.222 0 89.445 72.778 162.222 162.222 162.222 89.445 0 162.223-72.777 162.223-162.222 0-89.444-72.778-162.222-162.223-162.222z"/>
    <path fill="#DAAA85" d="M256.535 176.601c-2.819 7.67-5.286 15.869-4.053 23.979l-3.083.264a57.785 57.785 0 0 0-11.54-3.349c-10.218-1.675-22.198 1.057-32.153 3.967a263.017 263.017 0 0 0 19.204-9.698c8.897-9.344 12.597-21.686 21.67-28.034l-.264-.352c5.021-15.251 17.178-52.189 37.35-38.172a217.346 217.346 0 0 0-27.131 51.395z"/>
    <path fill="#DAAA85" d="M127.306 150.683c10.13 6.612 14.447 20.364 13.214 34.469-.705 8.199-.089 18.601.352 28.475.352 8.199 6.871 17.72 6.871 17.72 22.903-16.838 37.526-20.541 58.051-29.797 9.955-2.91 21.935-5.731 32.153-3.968a57.854 57.854 0 0 1 11.54 3.35c9.25 3.703 17.706 9.61 25.811 15.781 4.845-24.684 18.763-46.547 33.298-67.088 4.228-5.994 9.69-10.843 15.592-15.163 8.456-6.259 23.432-5.994 19.115 5.29 0 0-22.198 51.219-26.074 64.354-3.876 13.135-4.052 24.067-4.052 24.067-3.26 17.808-18.059 30.767-31.977 42.227-18.675 15.427-37.351 30.855-56.026 46.194 0 0-52.854 100.852-100.158 44.96-5.462-6.523-9.69-13.841-13.302-21.51-1.409-3.438-2.907-6.876-4.316-10.226a2178.82 2178.82 0 0 1-16.737-40.729c-4.317-11.725-2.731-24.86.44-36.937 3.26-12.078 8.016-23.715 10.307-36.057 3.611-19.923.176-40.992-9.602-58.712-2.29-4.143-.705-9.433 3.523-11.549 9.866-4.848 21.582-1.939 31.977 4.849zM107.31 329.73c1.409 3.35 2.907 6.788 4.316 10.226-1.586-3.35-2.995-6.788-4.316-10.226z"/>
    <path fill="#DAAA85" d="M330.442 105.9c.881 5.73-5.726 22.656-6.342 28.386-5.902 4.32-11.364 9.168-15.592 15.163-14.535 20.541-28.453 42.403-33.298 67.087-8.105-6.171-16.561-12.077-25.811-15.78l3.083-.264c-1.233-8.111 1.234-16.309 4.052-23.979a217.386 217.386 0 0 1 27.132-51.395 298.252 298.252 0 0 1 7.928-10.491c7.136-8.904 16.473-17.896 27.925-17.896 3.436 0 7.223.97 9.161 3.879 1.058 1.499 1.498 3.438 1.762 5.29z"/>
    <path stroke="#AA7959" stroke-linecap="round" stroke-linejoin="round" stroke-miterlimit="10" stroke-width="4" d="M205.618 201.462h.176c9.955-2.91 21.935-5.731 32.153-3.968a57.854 57.854 0 0 1 11.54 3.35c9.25 3.703 17.706 9.61 25.811 15.78 1.673 1.323 3.259 2.557 4.933 3.879"/>
    <path stroke="#AA7959" stroke-linecap="round" stroke-linejoin="round" stroke-miterlimit="10" stroke-width="4" d="M253.011 160.557a21.23 21.23 0 0 0-6.343 3.085c-9.073 6.348-12.773 18.69-21.67 28.034-7.047 3.967-13.39 7.053-19.204 9.697-20.525 9.257-35.148 13.048-58.051 29.797 0 0-6.519-9.52-6.871-17.719-.352-9.962-.969-20.276-.352-28.475 1.145-14.017-3.084-27.857-13.214-34.469-10.395-6.612-22.111-9.521-31.889-4.584-4.228 2.116-5.814 7.405-3.523 11.548 9.69 17.72 13.213 38.789 9.602 58.713-2.29 12.254-7.048 23.978-10.307 36.056-3.26 12.077-4.757 25.213-.44 36.938 0 0 7.663 19.218 16.561 40.64 1.409 3.35 2.907 6.788 4.316 10.226 0 0 17.618 42.404 48.273 38.172 30.656-4.232 56.026-45.842 65.187-61.622 18.675-15.427 37.35-30.854 56.026-46.194 13.918-11.46 28.717-24.507 31.976-42.227 0 0 .177-10.931 4.053-24.067 3.787-13.135 26.074-64.354 26.074-64.354 4.317-11.372-10.659-11.549-19.115-5.29-5.902 4.32-11.364 9.169-15.592 15.163-14.535 20.541-28.453 42.404-33.298 67.088-.088.176-.088.352-.088.441M246.316 163.29c5.021-15.251 17.178-52.189 37.35-38.172"/>
    <path stroke="#AA7959" stroke-linecap="round" stroke-linejoin="round" stroke-miterlimit="10" stroke-width="4" d="M252.482 200.492c-1.233-8.111 1.234-16.309 4.053-23.979a217.346 217.346 0 0 1 27.131-51.395 298.252 298.252 0 0 1 7.928-10.491c7.136-8.904 16.473-17.896 27.925-17.896 3.436 0 7.223.97 9.161 3.879 1.058 1.587 1.498 3.438 1.762 5.29.881 5.73-5.726 22.656-6.342 28.386M176.549 316.153c-8.017-10.49-4.757-26.094 2.642-37.025 20.525-30.326 64.394-35.968 88.179-63.826"/>
    <path fill="#DAAA85" d="M222.796 244.394c-1.233-3.438-2.378-7.846-3.259-13.488 1.233 5.73 2.29 10.138 3.259 13.488z"/>
    <path fill="#9CEFE8" d="M156.464 275.778c-13.302 0-26.251-1.94-38.495-5.907-.793-.264-1.234-.97-1.234-1.763 0-.793.529-1.499 1.322-1.675a733.838 733.838 0 0 1 39.552-8.728c-40.081-4.496-64.306-15.691-99.454-37.202-5.373-3.262-7.488-7.229-5.726-10.931.265-.529.793-.97 1.41-.97 2.466-.264 5.02-.353 7.664-.353 9.778 0 19.291 1.675 29.862 3.703 13.742 2.645 22.551 4.055 30.303 5.289 10.395 1.675 18.852 2.998 34.62 6.612-16.473-13.576-30.92-29.18-42.9-46.458-.353-.529-.441-1.146-.176-1.764.264-.528.792-.969 1.409-.969.969-.088 1.938-.088 2.907-.088 8.545 0 16.473 3.261 23.961 6.699 16.473 7.582 32.241 15.869 48.097 24.42-6.519-8.639-9.426-17.808-8.721-27.152.088-1.058.264-3.174 1.938-4.496.881-.706 2.114-1.146 3.524-1.146.528 0 1.145.088 1.849.176 9.69 1.41 18.676 8.375 26.604 15.075-8.281-14.811-16.033-34.381-15.945-50.602 0-.794.529-1.499 1.322-1.675a10.107 10.107 0 0 1 2.29-.265c4.845 0 8.545 3.967 10.923 6.876 6.255 7.846 12.597 15.781 18.764 23.538-10.483-29.708-20.437-62.679-15.24-96.531 1.057-6.171 3.876-8.023 6.078-8.463.352-.088.793-.088 1.233-.088 2.907 0 5.11 2.115 6.519 3.702 14.359 16.574 20.613 37.555 26.868 61.269 1.497 5.642 2.554 9.521 3.347 12.783 1.762 6.612 2.819 10.49 5.374 21.069 3.171-3.791 6.342-7.669 9.513-11.46 3.876-4.672 7.752-9.257 11.54-13.929.352-.441.793-.617 1.321-.617h.265c.616.088 1.145.529 1.321 1.058 4.757 11.989 3.876 26.888-2.555 41.786-6.254 14.458-16.649 27.152-25.017 36.585-12.509 14.105-26.251 27.417-40.962 39.494-5.638 4.585-12.333 9.874-19.909 13.753-8.985 4.672-19.556 7.493-32.241 8.816-4.404.352-8.809.529-13.125.529z"/>
    <path fill="#64D8D6" d="M224.029 62.526c2.114 0 3.876 1.587 5.198 3.086 14.623 16.926 20.789 39.053 26.427 60.563 4.756 18.337 5.021 18.249 9.425 36.674l.353.176c7.752-9.256 15.415-18.513 23.167-27.769 4.933 12.518 3.172 27.24-2.554 40.464-5.638 13.135-14.887 25.036-24.666 36.144-12.508 14.105-26.162 27.24-40.785 39.318-6.167 5.025-12.421 9.962-19.556 13.576-9.866 5.025-20.79 7.493-31.625 8.639-4.316.441-8.633.617-12.861.617-13.037 0-25.898-1.939-37.967-5.818 17.266-4.32 34.62-8.022 51.973-11.019-47.48-3.439-72.938-14.546-111.434-38.172-3.26-1.94-6.783-5.202-5.109-8.728 2.466-.264 4.933-.353 7.488-.353 9.954 0 19.82 1.852 29.51 3.703 34.796 6.788 38.143 5.466 72.498 13.753-18.851-14.546-35.324-31.737-48.714-50.955.969-.088 1.85-.088 2.819-.088 8.281 0 15.944 3.173 23.168 6.523 19.468 8.904 38.143 18.954 56.818 29.18-9.249-9.08-15.944-20.276-14.975-33.323.088-1.234.264-2.468 1.321-3.262.705-.529 1.498-.705 2.379-.705.528 0 1.057.088 1.585.176 12.597 1.763 24.225 13.841 33.651 21.246-11.452-17.455-21.054-40.993-21.054-58.448a6.713 6.713 0 0 1 1.85-.264c3.876 0 7.135 3.261 9.514 6.259 8.456 10.579 16.825 21.157 25.282 31.648-12.069-33.764-24.313-68.939-18.587-105.612.44-2.82 1.673-6.435 4.668-7.052.265-.177.529-.177.793-.177zm0-3.526c-.528 0-1.057.088-1.585.176-5.198 1.058-6.96 6.7-7.488 9.874-4.757 30.767 2.819 60.475 11.98 87.804-4.14-5.201-8.28-10.402-12.421-15.516-2.642-3.261-6.694-7.581-12.244-7.581-.881 0-1.85.088-2.731.353-1.586.44-2.643 1.763-2.643 3.438 0 8.639 2.203 19.13 6.431 30.414 1.674 4.408 3.612 8.992 5.814 13.4-6.431-4.849-13.39-9.08-20.877-10.138-.705-.089-1.41-.177-2.027-.177-1.849 0-3.435.529-4.668 1.499-2.291 1.851-2.467 4.584-2.555 5.73-.617 7.67 1.145 15.163 5.197 22.392-13.83-7.405-27.66-14.546-42.019-21.158-7.575-3.438-15.768-6.788-24.665-6.788-1.057 0-2.114.088-3.083.177-1.233.088-2.379.881-2.907 2.027a3.6 3.6 0 0 0 .264 3.526c10.747 15.516 23.432 29.621 37.791 42.139-11.54-2.468-18.939-3.702-27.749-5.113-7.751-1.234-16.56-2.644-30.215-5.289-10.658-2.028-20.26-3.791-30.215-3.791-2.642 0-5.285.088-7.84.353-1.233.088-2.29.881-2.818 2.027-2.114 4.585.264 9.521 6.43 13.224 32.153 19.747 55.233 30.767 89.588 36.056-9.778 2.028-19.556 4.232-29.246 6.7-1.497.353-2.643 1.763-2.643 3.35-.088 1.587.969 2.997 2.467 3.438 12.421 3.967 25.546 5.995 39.024 5.995 4.404 0 8.809-.177 13.213-.617 12.95-1.323 23.697-4.232 32.858-8.992 7.752-3.967 14.447-9.257 20.173-13.929 14.799-12.166 28.629-25.566 41.226-39.671 8.457-9.521 18.939-22.392 25.282-37.026 6.607-15.339 7.488-30.678 2.555-43.196-.441-1.146-1.498-2.028-2.731-2.204-.176 0-.353-.088-.529-.088a3.61 3.61 0 0 0-2.731 1.234c-3.876 4.672-7.752 9.256-11.539 13.929-2.467 2.909-4.845 5.906-7.312 8.815-2.026-8.11-2.995-11.813-4.581-17.719-.881-3.174-1.938-7.141-3.347-12.783-6.254-23.891-12.597-45.136-27.22-61.974-.793-1.058-3.612-4.32-7.664-4.32z"/>
    <path fill="#9CEFE8" d="M168.092 167.962a10.63 10.63 0 0 1-3.7-.705c-8.809-2.909-15.063-10.491-16.121-19.307 0-.352 0-.617.177-.969 1.761-3.703 4.316-5.554 7.752-5.554 2.29 0 4.58.881 6.342 1.675 4.669 2.116 7.84 6.171 10.131 9.433 1.497 2.203 2.818 4.584 2.906 7.405.089 2.909-1.673 6.435-5.109 7.581-.881.265-1.585.441-2.378.441z"/>
    <path fill="#64D8D6" d="M156.112 143.19c1.849 0 3.787.705 5.637 1.499 4.053 1.851 6.959 5.289 9.426 8.815 1.321 1.94 2.555 4.055 2.555 6.436.088 2.38-1.41 5.025-3.964 5.906a5.545 5.545 0 0 1-1.674.265c-1.057 0-2.202-.265-3.171-.617-8.105-2.733-14.007-9.698-14.888-17.808 1.498-3.35 3.7-4.496 6.079-4.496zm0-3.526c-2.819 0-6.783 1.146-9.338 6.611-.264.617-.352 1.235-.352 1.94 1.145 9.433 7.928 17.631 17.265 20.717h.088c1.058.352 2.555.793 4.229.793.969 0 1.938-.176 2.819-.441 4.316-1.41 6.43-5.818 6.342-9.344-.088-3.262-1.585-5.907-3.171-8.287-2.379-3.526-5.814-7.758-10.923-10.05-1.85-.97-4.317-1.939-6.959-1.939z"/>
    <path fill="#FFC5FA" d="M357.75 301.96l.441-.705c.616.441 1.85-.088 1.938-1.058.088-1.058-.881-1.939-1.762-2.645-34.532-27.945-75.493-49.808-100.071-86.834-1.409 3.35-1.233 7.405.353 10.667 1.321 2.733 3.611 4.937 5.902 6.964a734.122 734.122 0 0 0 93.199 73.611zm38.496 66.382c-3.083 5.907-9.69 8.816-15.857 11.372-6.694 2.821-13.301 5.554-19.908 8.375-4.052 1.675-8.28 3.438-12.597 2.733-3.964-3.526-138.037-112.047-141.473-116.102-3.612-4.32-8.28-14.017-10.218-19.307-2.819-8.022-3.348-10.226-2.467-18.689 2.995-28.915 7.928-57.743 17.706-85.071.705-1.94 1.41-3.791 2.643-5.378 1.674-2.027 4.14-3.35 6.607-4.496 4.933-2.468 10.042-4.937 15.416-6.171 2.554-.529 5.285-.705 7.84-.176 3.171 1.587 6.078 3.791 8.897 6.083 40.697 32.089 81.395 64.178 122.093 96.179 6.166 4.848 12.509 9.873 16.385 16.75 4.58 8.11 5.197 17.807 5.725 27.064 1.146 24.331 1.762 48.662 1.674 73.082-.088 4.672-.264 9.609-2.466 13.752zm-19.997-3.79c2.026 1.498 4.845 3.085 6.871 1.498 2.907-2.204-.264-6.7-3.259-8.816-44.574-31.56-98.925-67.792-136.54-107.463-6.871-6.788 0-50.073-6.078-51.483-4.581-1.058-4.229 49.368-3.612 54.04.264 2.027 1.938 3.438 3.524 4.672a5626.433 5626.433 0 0 0 139.094 107.552zm-4.228-87.099c-1.145 3.085-.705 6.611 1.057 9.344 3.788-7.405 1.762-16.661-2.995-23.538-4.757-6.788-11.716-11.636-18.675-16.221-10.571-6.876-21.318-13.576-31.096-21.51-8.281-6.7-15.768-14.281-23.873-21.157-13.389-11.461-28.453-20.982-44.485-28.211 30.743 27.593 61.575 55.363 96.635 77.402 9.69 5.995 20.701 12.959 23.432 23.891z"/>
    <path fill="#FCB9F9" d="M347.884 390.822c-3.171-.529-5.902-2.204-8.633-3.967-24.401-15.868-46.776-34.557-69.151-53.158-24.665-20.541-49.33-40.993-73.995-61.534-3.26-2.733-6.695-5.554-8.457-9.521-1.85-4.055-1.674-8.551-1.321-12.959.704-9.08 2.466-18.16 4.14-27.152 4.228-22.568 8.368-45.225 12.685-67.793 1.057-5.554 3.964-9.521 9.954-11.813 7.488-5.466 16.209-11.196 25.37-9.521 1.938.353 3.788 1.058 5.55 1.94-2.467-.617-5.286-.441-7.84.176-5.374 1.146-10.483 3.703-15.416 6.171-2.379 1.234-4.933 2.468-6.607 4.496-1.233 1.587-2.026 3.526-2.643 5.378-9.866 27.328-14.711 56.244-17.706 85.071-.881 8.463-.352 10.667 2.467 18.689 1.938 5.29 6.606 14.987 10.218 19.306 3.348 4.232 137.421 112.665 141.385 116.191z"/>
    <path fill="#FFE9FE" d="M383.12 366.138c-2.026 1.499-4.845 0-6.871-1.498-46.864-35.175-93.199-70.967-139.094-107.552-1.586-1.234-3.26-2.733-3.524-4.672-.617-4.672-.881-55.098 3.612-54.04 6.078 1.41-.793 44.783 6.078 51.483 37.614 39.583 91.966 75.903 136.54 107.464 2.995 2.115 6.166 6.523 3.259 8.815z"/>
    <path fill="#FFC5FA" d="M358.191 301.343l-.441.705c-32.945-21.951-64.129-46.635-93.199-73.611-2.202-2.115-4.493-4.231-5.902-6.964-1.586-3.262-1.762-7.317-.353-10.667 24.49 37.026 65.54 58.889 100.071 86.834.881.706 1.762 1.587 1.762 2.645-.088.882-1.322 1.499-1.938 1.058z"/>
    <path fill="#FCB9F9" d="M372.021 277.453c-2.819-10.932-13.742-17.808-23.52-23.979-34.972-21.951-65.892-49.72-96.635-77.402 16.032 7.229 31.096 16.75 44.485 28.21 8.105 6.877 15.592 14.546 23.873 21.158 9.778 7.934 20.613 14.634 31.096 21.51 6.959 4.496 13.918 9.345 18.675 16.221 4.757 6.788 6.783 16.133 2.995 23.538-1.674-2.733-2.026-6.259-.969-9.256z"/>
    <path stroke="#EF67CB" stroke-miterlimit="10" stroke-width="4" d="M212.93 142.925c7.487-5.466 16.208-11.196 25.37-9.521 1.938.353 3.788 1.058 5.549 1.94 3.172 1.587 6.079 3.79 8.898 6.083 40.697 32.089 81.395 64.178 122.093 96.179 6.166 4.848 12.509 9.873 16.385 16.749 4.58 8.111 5.197 17.808 5.725 27.065 1.146 24.331 1.762 48.662 1.674 73.082 0 4.672-.088 9.609-2.378 13.84-3.083 5.907-9.69 8.816-15.857 11.372-6.694 2.821-13.301 5.554-19.908 8.375-4.052 1.675-8.28 3.438-12.597 2.733-3.171-.529-5.902-2.204-8.633-3.967-24.401-15.868-46.776-34.557-69.151-53.158-24.665-20.541-49.33-40.993-73.995-61.534-3.26-2.733-6.695-5.554-8.457-9.521-1.85-4.055-1.674-8.551-1.321-12.959.704-9.08 2.466-18.16 4.14-27.152 4.228-22.568 8.368-45.225 12.685-67.793.881-5.554 3.788-9.521 9.778-11.813z"/>
    <path fill="#FFE9FE" d="M282.521 226.233c.705-5.906 2.026-11.813-1.673-17.014-1.762-2.468-4.141-4.32-6.607-6.083-.529-.352-1.498-1.322-2.203-.969-.528.264-.528.881-.264 1.322.353.529 1.145.088.881-.441.529.794 1.762 1.411 2.555 2.028.881.705 1.85 1.41 2.642 2.204 1.762 1.675 3.26 3.702 4.053 5.994 1.409 4.056.264 8.816-.265 12.959-.176.617.793.617.881 0zM268.074 228.349c3.964 1.587 8.457 3.879 9.426 8.551.441 2.116-.528 4.056-1.321 5.995a242.81 242.81 0 0 1-2.995 7.053c-.265.529.704.881.881.264 1.233-2.909 2.466-5.73 3.611-8.639.793-1.94 1.057-3.791.441-5.819-1.498-4.496-5.726-6.7-9.866-8.375-.529-.264-.793.706-.177.97zM262.437 239.633a39.637 39.637 0 0 0 5.285 4.232c.529.352 1.057-.441.529-.794-1.85-1.146-3.524-2.556-5.11-4.055-.44-.529-1.145.176-.704.617zM298.994 229.76c6.959 2.909 11.628 9.961 11.188 17.543-.441 6.876-4.317 13.047-4.757 19.923-.088.617.969.706.969 0 .528-7.758 5.285-14.546 4.757-22.48-.529-7.052-5.374-13.223-11.893-15.956-.528-.265-.792.705-.264.97zM292.035 241.132c-.441 1.851-.881 3.614-1.41 5.377-.44 1.587-.969 3.174-1.145 4.849-.264 2.909 1.674 5.377 3.348 7.493.44.441 1.145-.176.704-.705-2.026-2.468-3.611-4.849-2.818-8.199.704-2.909 1.497-5.73 2.202-8.639.264-.529-.705-.881-.881-.176zM323.571 251.005c2.379 2.204 5.99 2.645 7.4 5.731.969 2.027.881 4.319.969 6.523.088 1.94.176 3.879.264 5.907.264 7.669.969 15.515-.44 23.185-.089.617.792.882.88.264 1.498-8.11.705-16.485.441-24.683-.176-3.703.264-7.935-1.145-11.373-1.498-3.526-5.11-3.879-7.664-6.259-.441-.352-1.145.353-.705.705zM321.986 262.554c-.617.705-1.322 1.41-2.026 2.116-.353.352-.881.705-.881 1.322-.088 1.234 1.761 2.204 2.554 2.909.529.353.969-.441.529-.793l-1.322-1.058c-.176-.176-.352-.265-.528-.441-.264-.352-.176-.529.088-.793.617-.882 1.498-1.587 2.202-2.38.529-.618-.176-1.323-.616-.882zM316.612 273.485c-1.586 2.293-3.259 4.496-4.845 6.7-.352.529.441.97.793.529 1.586-2.292 3.259-4.496 4.845-6.7.44-.529-.441-1.057-.793-.529z"/>
    <path fill="#FCB9F9" d="M274.681 220.944c1.057-3.791-.352-7.846-2.995-10.667-.44-.441-1.145.176-.705.705 2.379 2.469 3.788 6.259 2.819 9.698-.176.529.705.793.881.264zM267.546 234.696c1.674.706 3.259 1.852 2.29 3.791-.616 1.234-1.674 2.38-2.466 3.526-.353.529.44 1.058.792.529.793-1.146 1.762-2.292 2.467-3.526a2.983 2.983 0 0 0 .529-1.763c-.089-1.851-1.85-2.909-3.348-3.526-.617-.265-.881.705-.264.969zM261.644 204.547c-1.586 2.556-3.171 5.289-3.348 8.375-.176 3.879 2.115 7.581 3.612 11.019.264.529 1.145.088.881-.441-1.409-3.261-3.7-6.876-3.524-10.49.177-2.909 1.674-5.466 3.172-7.846.352-.617-.441-1.146-.793-.617zM255.213 233.198c-.793 2.292-1.321 4.848-1.145 7.229.088 2.38 1.586 3.879 3.171 5.465 1.938 1.852 3.964 3.703 5.99 5.378 1.234.97 3.26 3.262 5.022 2.204.528-.265.088-1.146-.441-.882-1.409.794-5.021-2.997-5.902-3.702-1.586-1.323-3.083-2.733-4.493-4.144-1.673-1.675-2.554-3.173-2.466-5.554.088-2.027.528-3.878 1.145-5.818.264-.441-.705-.793-.881-.176zM298.994 241.396c2.731 1.323 3.788 4.761 3.524 7.582a16.864 16.864 0 0 1-1.057 4.143c-.265.705-.441 1.411-.705 2.116-.088.264-1.145 2.909-1.321 2.733-.353-.529-1.058.176-.705.705.705.97 1.585.176 2.026-.617.617-1.146.881-2.645 1.321-3.879a23.22 23.22 0 0 0 1.057-3.526c.793-3.615 0-8.287-3.699-10.05-.529-.265-1.058.617-.441.793zM287.19 233.727c-1.233 3.35-2.467 6.7-3.612 10.05-.881 2.733-1.497 5.554-1.057 8.375.441 3.261 2.026 6.259 3.788 8.992.969 1.41 2.819 5.377 5.021 4.76.617-.176.352-1.146-.176-.97-1.41.441-2.995-2.644-3.524-3.526-.792-1.234-1.585-2.468-2.29-3.703-1.321-2.556-2.202-5.289-2.026-8.198.176-2.38.881-4.761 1.674-7.053.969-2.821 2.026-5.642 3.083-8.463.264-.529-.705-.793-.881-.264zM320.312 254.003c-3.259 4.143-6.519 8.287-9.69 12.43-1.586 2.028-3.083 3.967-4.669 5.995-.528.705-1.762 1.939-.44 2.468.176.088.352 0 .528-.088l.088-.088c.441-.441-.176-1.146-.704-.706.352.089.616 0 .704-.264.088-.176.265-.353.353-.529.352-.441.704-.793.969-1.234.704-.794 1.321-1.675 1.938-2.469 1.321-1.675 2.642-3.35 3.876-5.025a766.615 766.615 0 0 0 7.752-9.961c.44-.529-.353-1.058-.705-.529zM319.96 274.72c.704 2.027 2.554 2.733 3.875 4.231 1.058 1.146 1.234 2.733 1.586 4.232.264 1.322.617 2.645.881 3.967.176.617 1.057.441.969-.176-.529-2.381-.793-5.114-1.762-7.317-1.057-2.204-3.7-2.91-4.58-5.202-.265-.529-1.146-.352-.969.265zM325.333 261.32c-.176 3.086-.529 6.083-1.145 9.08-.088.617.793.882.881.265.616-3.086 1.057-6.171 1.145-9.345.088-.617-.881-.617-.881 0zM338.459 298.346a113.06 113.06 0 0 1 12.068-30.15c-.176.088-.352.088-.529.176.353.177.705.265 1.146.353.616.176.88-.705.264-.881-.353-.177-.705-.265-1.145-.353-.177-.088-.441 0-.529.176-5.461 9.433-9.602 19.659-12.156 30.326-.177.705.704 1.058.881.353zM350.086 291.91c0-.088 4.933 1.323 5.55 1.323 1.498.088 3.612.088 4.757-1.058.176-.177.176-.353.088-.529 0-.088-.088-.088-.088-.176a.483.483 0 0 0-.441-.265h-.176c-.616-.088-.616.97 0 .97-.088 0-.176-.088-.176-.088 0-.177.088-.353.088-.529-1.762 1.675-5.461.705-7.399.088-.881-.265-2.555-1.323-3.172-.176-.088.44.705.969.969.44z"/>
    <path fill="#FFE9FE" d="M356.341 270.488c1.497 2.821 4.404 4.408 6.078 7.141 1.938 3.085.881 6.876 0 10.138-.176.617.793.881.881.264.881-3.085 1.762-6.523.529-9.697-1.41-3.438-5.022-5.113-6.695-8.287-.177-.529-1.057-.088-.793.441zM346.122 297.023c-.792 1.763-.704 4.408-2.554 5.554-.529.353-.088 1.146.44.882 2.114-1.323 1.938-3.791 2.907-5.819.264-.617-.616-1.146-.793-.617z"/>
    <path fill="#FCB9F9" d="M355.372 276.924c.44.793 1.057 1.41 1.497 2.115.529.97.705 2.116.881 3.086.176.793.265 1.675.088 2.468-.088.529-.528.97-.528 1.587 0 .264.176.529.44.529h.088c.265 0 .441-.176.529-.441v-.088c.088-.617-.881-.617-.969 0v.088c.176-.176.352-.352.528-.441h-.088c.177.177.353.353.441.529 0-.352.44-1.146.528-1.498.177-.882 0-1.763-.088-2.557-.176-.97-.352-1.939-.704-2.821-.441-1.146-1.234-1.851-1.85-2.909-.265-.705-1.057-.176-.793.353z"/>
    <path fill="#FFE9FE" d="M351.408 278.07c-.793 1.498-2.203 3.702-2.379 5.465-.088 1.764 1.498 2.557 2.907 3.086.617.264.881-.705.265-.882-.617-.264-1.41-.44-1.762-.969-.793-.97-.176-1.852.176-2.733.44-1.146 1.057-2.292 1.674-3.438.264-.529-.529-1.058-.881-.529z"/>
    <path fill="#DAAA85" d="M448.659 253.65c-4.052-18.16-22.903-16.221-22.903-16.221l-13.302 4.408a32.847 32.847 0 0 0-4.845 3.615c0-21.422-6.342-29.886-18.499-31.472-10.923-1.411-18.763 13.488-19.291 14.546 0-12.519-2.907-23.803-11.188-26.183-11.628-3.438-15.504.705-27.66 14.193-8.545 9.433-18.94 37.555-24.842 54.922 0 0-11.275 39.142-19.115 45.93-8.369 7.317-22.375 11.372-34.972 3.173-5.902-3.879-12.773-8.11-17.794-12.959-1.938 4.32-2.555 7.141-2.379 10.226.705 12.342 3.26 28.211 7.664 55.892 1.233 5.73 2.29 10.138 3.259 13.488 2.819 7.934 5.638 10.667 5.638 10.667 40.962 61.798 105.709 39.406 105.709 39.406 24.401-6.788 55.144-37.026 71-53.6 15.857-16.573 19.38-32.529 20.349-48.838.881-16.309 7.224-63.121 3.171-81.193z"/>
    <path stroke="#AA7959" stroke-linecap="round" stroke-linejoin="round" stroke-miterlimit="10" stroke-width="4" d="M365.678 282.037s.176-21.246 2.819-38.26c.793-4.937 1.233-10.139 1.233-15.163M369.73 228.614c.617-1.146 8.369-16.045 19.38-14.634 12.069 1.586 18.411 10.049 18.499 31.472 0 2.468-.088 5.201-.264 8.022-.881 14.458-.352 28.563.352 38.613.617 8.903 1.322 14.634 1.322 14.634M423.642 250.741s-13.214 34.293-15.945 41.434"/>
    <path stroke="#AA7959" stroke-linecap="round" stroke-linejoin="round" stroke-miterlimit="10" stroke-width="4" d="M369.731 228.614c0-12.519-2.907-23.803-11.188-26.183-11.628-3.438-15.504.705-27.66 14.193-8.545 9.433-18.94 37.555-24.842 54.922-2.554 7.405-4.228 12.871-4.492 14.017 0 0-7.928 27.152-14.535 31.913-10.923 9.344-21.23 7.934-27.837 6.523-6.695-1.498-25.017-16.397-25.017-16.397s-2.467 5.466-2.379 10.226c.705 12.342 1.938 28.475 7.664 55.892 1.233 5.73 2.29 10.138 3.259 13.488 13.126 29.003 49.595 66.205 111.346 50.161 24.401-6.788 55.145-37.026 71.001-53.599 15.856-16.574 19.38-32.53 20.349-48.839.969-16.309 7.047-63.032 3.171-81.281-3.523-16.838-20.525-17.719-26.779-16.221-5.462 1.323-14.359 8.111-14.359 8.111"/>
    <path stroke="#AA7959" stroke-linecap="round" stroke-linejoin="round" stroke-miterlimit="10" stroke-width="4" d="M349.47 291.558c6.694-1.587 19.556-4.496 31.448 9.433 4.757 5.553 13.742 7.581 18.411 6.964 4.669-.617 13.478 2.028 18.587 8.728"/>
</svg>
