<svg xmlns="http://www.w3.org/2000/svg" width="280" height="302" fill="none" viewBox="0 0 280 302">
    <path fill="#E5E5E5" d="M29.346 300.613c-.396 0-.726-.198-.99-.463-.265-.264-.331-.66-.331-1.057 1.321-8.257 2.775-16.912 4.228-25.896l3.237-19.62 3.7-22.594c.132-.66.66-1.123 1.32-1.123h186.56c.396 0 .793.199 1.057.529l49.348 68.11c.264.396.33.925.132 1.387-.198.463-.66.727-1.189.727H29.346z"/>
    <path fill="#999" d="M227.07 231.182l49.414 68.109H29.346c1.321-8.257 2.775-16.911 4.228-25.896 1.057-6.408 2.114-12.948 3.237-19.62.462-2.907.991-5.814 1.453-8.786.727-4.559 1.52-9.183 2.246-13.873h186.56v.066zm0-2.643H40.51c-1.32 0-2.378.925-2.576 2.246l-1.585 9.513-.727 4.36c-.462 2.709-.925 5.417-1.321 8.126l-.132.66-.991 6.078-2.246 13.543c-1.454 8.984-2.907 17.638-4.228 25.896-.133.793.066 1.52.594 2.114.529.595 1.255.925 1.982.925H276.418a2.63 2.63 0 0 0 2.378-1.453c.463-.859.397-1.916-.198-2.775l-49.348-68.11a2.664 2.664 0 0 0-2.18-1.123z"/>
    <path fill="#E5E5E5" d="M160.149 275.047c-.991 0-1.982 0-2.841-.066h-.132c-3.501-.132-82.049-.198-123.536-.264-.132 0-.33 0-.462-.067-.595-.198-.925-.792-.86-1.453L35.557 251l1.453-9.909c.066-.396.264-.727.595-.925.198-.132.462-.198.66-.198h117.657c6.276 0 27.416.661 35.806 9.315 2.444 2.576 3.633 5.615 3.567 9.05 0 .793-.132 1.52-.264 2.246-1.123 5.351-7.135 14.468-34.881 14.468z"/>
    <path fill="#999" d="M155.921 241.289c7.531 0 38.58.991 38.051 16.978 0 .727-.132 1.387-.264 2.048-2.378 11.759-22.197 13.411-33.559 13.411-.991 0-1.982 0-2.841-.067 1.718-.132-123.734-.264-123.734-.264h-.066c1.057-7.267 2.114-14.666 3.237-22.197.462-3.303.99-6.606 1.453-9.909h117.723zm0-2.642H38.264c-.462 0-.925.132-1.387.396-.66.396-1.19 1.123-1.255 1.916-.463 3.105-.925 6.21-1.322 9.248l-.066.661-.925 6.606-2.246 15.591c-.198 1.189.529 2.378 1.652 2.841h.066c.33.132.66.198.925.198 41.223.066 119.308.132 123.47.264h.198c.925 0 1.916.066 2.907.066 5.615 0 13.807-.396 20.875-2.444 8.853-2.511 14.005-6.937 15.327-13.147.132-.792.264-1.585.264-2.444.132-3.831-1.189-7.135-3.898-9.975-8.654-8.852-28.737-9.777-36.928-9.777z"/>
    <path fill="#E5E5E5" d="M156.053 267.054c-.991 0-1.916-.067-2.841-.133h-.066a18.95 18.95 0 0 1-4.029-.792c-3.766-1.123-5.946-3.039-5.946-5.285 0-4.03 6.606-6.144 12.816-6.144 6.21 0 12.816 2.18 12.816 6.144 0 2.378-2.312 4.294-6.342 5.417-1.585.396-3.237.66-5.087.726-.462.067-.859.067-1.321.067z"/>
    <path fill="#999" d="M156.053 256.087c6.342 0 11.495 2.18 11.495 4.823 0 1.717-2.18 3.237-5.417 4.095-1.388.397-3.039.595-4.823.727h-1.321c-.925 0-1.85-.066-2.709-.132a19.978 19.978 0 0 1-3.765-.727c-2.973-.858-4.955-2.312-4.955-3.963 0-2.643 5.153-4.823 11.495-4.823zm0-2.642c-3.435 0-6.672.594-9.117 1.651-4.36 1.85-4.954 4.426-4.954 5.88 0 2.906 2.51 5.285 6.87 6.54 1.321.396 2.709.66 4.228.793h.066c.991.066 1.982.132 2.973.132.462 0 .925 0 1.453-.066 1.916-.066 3.7-.331 5.351-.793 4.691-1.255 7.333-3.634 7.333-6.672 0-1.388-.66-4.03-4.954-5.88-2.643-1.057-5.88-1.585-9.249-1.585z"/>
    <path fill="#C4C4C4" d="M276.484 299.292h-44.592c15.591-18.894 6.21-34.617-4.822-49.679-8.258-11.297-35.938-18.431-35.938-18.431h35.938l49.414 68.11zM158.431 241.289c14.071 0 30.917 3.766 34.617 12.156-3.898-5.55-17.771-6.541-24.245-6.541-26.029.067-131.133-1.915-131.133-1.915 0-1.85.528-4.228.528-4.228l120.233.528zM156.053 256.087c6.342 0 11.495 2.18 11.495 4.823 0 1.717-2.18 3.237-5.417 4.096v-.133s-.991-3.633-6.937-3.633c-5.879 0-5.615 3.567-5.615 3.633-2.973-.858-4.955-2.312-4.955-3.963-.066-2.643 5.087-4.823 11.429-4.823z"/>
    <path fill="#DAAA85" stroke="#AA7959" stroke-linecap="round" stroke-linejoin="round" stroke-miterlimit="10" stroke-width="4" d="M126.457 242.28l-36.136-30.19L56.167 82.939l-9.777 4.095s-8.984 5.285-13.543 4.36c-4.492-.858-6.276-3.5-6.276-7.002 0-3.501-2.708-3.501-2.708-3.501-1.784-2.643.925-4.36.925-4.36s-3.634 1.783-3.634-1.784-1.783-6.144-1.783-6.144-7.201-1.783-2.709-8.786c3.039-4.757 3.634-10.504 1.784-13.147C16.86 44.358 13.954 1.154 54.45 2.014 94.946 2.87 103.07 37.026 91.378 61.6c0 0 25.632 16.978 64.014 62.626 38.382 45.649 44.196 71.744 31.116 102.859-12.949 31.181-60.051 15.194-60.051 15.194z"/>
    <path fill="#DAAA85" d="M90.585 201.19s15.987-1.718 32.767 30.52c18.299 35.079 24.113 38.845 24.113 38.845s7.267 6.54 2.906 15.194c-4.36 8.654-18.827 3.633-18.827 3.633s-5.814-2.18-10.834 0c-5.087 2.18-13.741 4.36-23.188 1.454-9.447-2.907-12.288-8.06-5.814-10.24 6.54-2.18 15.855-4.294 20.942-10.768 0 0 2.18-3.633-2.18-6.54s-34.418-28.869-42.412-36.07c-7.993-7.201-24.64-25.368-25.368-34.815-.726-9.447 5.814-22.461 22.462-21.007 16.647 1.453 29.86-3.766 89.249 20.875"/>
    <path stroke="#AA7959" stroke-linecap="round" stroke-linejoin="round" stroke-miterlimit="10" stroke-width="4" d="M90.585 201.19s15.987-1.718 32.767 30.52c18.299 35.079 24.113 38.845 24.113 38.845s7.267 6.54 2.906 15.194c-4.36 8.654-18.827 3.633-18.827 3.633s-5.814-2.18-10.834 0c-5.087 2.18-13.741 4.36-23.188 1.454-9.447-2.907-12.288-8.06-5.814-10.24 6.54-2.18 15.855-4.294 20.942-10.768 0 0 2.18-3.633-2.18-6.54s-34.418-28.869-42.412-36.07c-7.993-7.201-24.64-25.368-25.368-34.815-.726-9.447 5.814-22.461 22.462-21.007 16.647 1.453 29.86-3.766 89.249 20.875"/>
    <path fill="#DAAA85" d="M73.674 79.503s-18.101 1.454-18.828 20.281c-.727 18.828 5.813 44.658 5.813 44.658s-28.605 5.814-35.145 8.72c-6.54 2.907-15.92 10.174-15.92 10.174s-9.447 13.741-7.267 18.101c2.18 4.36 5.813.727 5.813.727s5.087-7.994 11.56-8.721c6.541-.726 8.721-2.18 11.562-6.54 0 0-1.784-2.906 25.037 2.907 26.821 5.814 25.764-.528 29.002-7.267 5.218-10.966 7.068-40.562 5.086-62.627"/>
    <path stroke="#AA7959" stroke-linecap="round" stroke-linejoin="round" stroke-miterlimit="10" stroke-width="4" d="M73.674 79.503s-18.101 1.454-18.828 20.281c-.727 18.828 5.813 44.658 5.813 44.658s-28.605 5.814-35.145 8.72c-6.54 2.907-15.92 10.174-15.92 10.174s-9.447 13.741-7.267 18.101c2.18 4.36 5.813.727 5.813.727s5.087-7.994 11.56-8.721c6.541-.726 8.721-2.18 11.562-6.54 0 0-1.784-2.906 25.037 2.907 26.821 5.814 25.764-.528 29.002-7.267 5.218-10.966 7.068-40.562 5.086-62.627"/>
</svg>
