<svg xmlns="http://www.w3.org/2000/svg" width="501" height="501" fill="none" viewBox="0 0 501 501">
    <path fill="#E04726" d="M250 488.889c131.935 0 238.889-106.954 238.889-238.889 0-131.934-106.954-238.889-238.889-238.889S11.111 118.066 11.111 250c0 131.935 106.954 238.889 238.889 238.889z"/>
    <path fill="#963720" d="M250 22.222c125.556 0 227.778 102.222 227.778 227.778S375.556 477.778 250 477.778 22.222 375.556 22.222 250 124.444 22.222 250 22.222zM250 0C112.222 0 0 112.222 0 250c0 137.778 112.222 250 250 250 137.778 0 250-112.222 250-250C500 112.222 387.778 0 250 0z"/>
    <path fill="#FDCF0D" d="M236.111 444.444c0-7.777 6.111-13.889 13.889-13.889h.556c7.777 0 13.888 6.112 13.888 13.889 0 7.778-6.111 13.889-13.888 13.889H250h-.556c-7.222 0-13.333-6.666-13.333-13.889zm-90-14.444c-6.667-3.889-8.889-12.222-5-18.889 3.889-6.667 12.222-8.889 18.889-5 6.667 3.889 8.889 12.222 5 18.889-2.778 4.444-7.222 6.666-12.222 6.666-2.222.556-4.445.001-6.667-1.666zm189.445-5c-3.889-6.667-1.667-15 5-18.889 6.666-3.889 15-1.667 18.888 5 3.889 6.667 1.667 15-5 18.889-2.222 1.111-4.444 1.666-7.222 1.666-4.444 0-8.889-2.222-11.666-6.666zM70 354.444c-3.889-6.666-1.667-15 5-18.889 6.667-3.888 15-1.666 18.889 5 3.889 6.667 1.666 15-5 18.889-2.222 1.111-4.445 1.667-6.667 1.667-5 0-10-2.778-12.222-6.667zm341.667 3.889c-6.667-3.889-8.889-12.222-5-18.889 3.889-6.666 12.222-8.889 18.889-5 6.666 3.889 8.888 12.222 5 18.889-2.778 4.445-7.223 7.222-12.223 7.222-2.222 0-4.444-.555-6.666-2.222zM41.667 250c0-7.778 6.11-13.889 13.889-13.889 7.777 0 13.888 6.111 13.888 13.889s-6.11 13.889-13.889 13.889c-7.222 0-13.888-6.111-13.888-13.889zm388.889-.556c0-7.777 6.111-13.889 13.888-13.889 7.778 0 13.889 6.112 13.889 13.889 0 7.778-6.111 13.889-13.889 13.889-7.777 0-13.888-6.111-13.888-13.889zM75 165c-6.667-3.889-8.889-12.222-5-18.889 3.889-6.667 12.222-8.889 18.889-5 6.666 3.889 8.889 12.222 5 18.889-2.778 4.444-7.222 6.667-12.222 6.667-2.223.555-5 0-6.667-1.667zm331.111-5.556c-3.889-6.666-1.667-15 5-18.889 6.667-3.888 15-1.666 18.889 5 3.889 6.667 1.667 15-5 18.889-2.222 1.111-4.444 1.667-7.222 1.667-4.445 0-9.445-2.222-11.667-6.667zM140.556 88.889c-3.889-6.667-1.667-15 5-18.89 6.666-3.888 15-1.666 18.888 5 3.889 6.668 1.667 15-5 18.89-2.222 1.11-4.444 1.666-6.666 1.666-5 .556-9.445-2.222-12.222-6.666zM340 93.333c-6.667-3.889-8.889-12.222-5-18.889 3.889-6.666 12.222-8.889 18.889-5 6.667 3.89 8.889 12.222 5 18.89-2.778 4.444-7.222 6.666-12.222 6.666-2.223.555-5 0-6.667-1.667zM235.556 55.555c0-7.777 6.111-13.889 13.888-13.889 7.778 0 13.889 6.112 13.889 13.89 0 7.777-6.111 13.888-13.889 13.888-7.222 0-13.888-6.11-13.888-13.889z"/>
    <path fill="#B4D66E" d="M250 401.11c-83.333 0-151.11-67.778-151.11-151.111 0-83.334 67.777-151.111 151.11-151.111 83.334 0 151.111 67.777 151.111 151.111 0 83.333-67.777 151.111-151.111 151.111z"/>
    <path fill="#9A3995" d="M250 109.999c77.223 0 140 62.778 140 140 0 77.222-62.777 140-140 140-77.222 0-140-62.778-140-140 0-77.222 62.778-140 140-140zm0-22.222c-89.444 0-162.222 72.778-162.222 162.222 0 89.445 72.778 162.222 162.222 162.222 89.445 0 162.223-72.777 162.223-162.222 0-89.444-72.778-162.222-162.223-162.222z"/>
    <path fill="#E5E5E5" d="M107.207 441.452c-.511 0-.936-.256-1.276-.596-.34-.34-.425-.85-.425-1.361 1.701-10.631 3.572-21.773 5.443-33.34l4.168-25.26 4.763-29.088c.17-.851.85-1.446 1.701-1.446h240.187c.51 0 1.02.255 1.361.68l63.533 87.689c.341.51.426 1.191.171 1.786-.256.595-.851.936-1.531.936H107.207z"/>
    <path fill="#999" d="M361.768 352.062l63.619 87.688H107.207c1.701-10.631 3.572-21.773 5.443-33.34 1.361-8.25 2.722-16.67 4.168-25.26.595-3.743 1.275-7.485 1.871-11.312.935-5.869 1.956-11.823 2.892-17.861H361.768v.085zm0-3.402H121.581c-1.701 0-3.062 1.19-3.317 2.891l-2.042 12.248-.935 5.613c-.596 3.488-1.191 6.975-1.701 10.462l-.17.85-1.276 7.825-2.892 17.436c-1.871 11.567-3.742 22.709-5.443 33.34-.17 1.021.085 1.956.765 2.722.681.765 1.616 1.191 2.552 1.191h318.18c1.275 0 2.466-.681 3.062-1.872.595-1.105.51-2.466-.256-3.572l-63.534-87.688c-.68-.936-1.701-1.446-2.806-1.446z"/>
    <path fill="#E5E5E5" d="M275.61 408.537c-1.276 0-2.552 0-3.657-.085h-.17c-4.508-.17-105.635-.256-159.048-.341-.17 0-.425 0-.595-.085-.766-.255-1.191-1.02-1.106-1.871l4.168-28.577 1.871-12.758c.085-.51.34-.936.765-1.191.255-.17.596-.255.851-.255h151.478c8.079 0 35.296.851 46.098 11.992 3.147 3.317 4.678 7.23 4.593 11.653 0 1.02-.17 1.956-.341 2.891-1.445 6.889-9.185 18.627-44.907 18.627z"/>
    <path fill="#999" d="M270.167 365.075c9.696 0 49.67 1.276 48.99 21.858 0 .936-.171 1.786-.341 2.637-3.061 15.139-28.577 17.266-43.206 17.266-1.276 0-2.552 0-3.657-.086 2.211-.17-159.303-.34-159.303-.34h-.085c1.361-9.355 2.722-18.881 4.168-28.577.595-4.253 1.275-8.505 1.871-12.758h151.563zm0-3.402H118.689c-.596 0-1.191.17-1.786.51-.851.51-1.531 1.446-1.616 2.467-.596 3.997-1.191 7.995-1.701 11.907l-.085.851-1.191 8.505-2.892 20.072c-.255 1.531.681 3.062 2.126 3.657h.085c.426.17.851.255 1.191.255 53.073.085 153.604.17 158.963.341h.255c1.19 0 2.466.085 3.742.085 7.229 0 17.776-.511 26.876-3.147 11.397-3.232 18.032-8.931 19.733-16.926.17-1.02.34-2.041.34-3.147.17-4.933-1.531-9.185-5.018-12.842-11.142-11.397-36.998-12.588-47.544-12.588z"/>
    <path fill="#E5E5E5" d="M270.337 398.246c-1.276 0-2.467-.085-3.657-.171h-.086a24.398 24.398 0 0 1-5.188-1.02c-4.848-1.446-7.654-3.913-7.654-6.804 0-5.189 8.505-7.91 16.5-7.91 7.995 0 16.5 2.807 16.5 7.91 0 3.062-2.977 5.528-8.165 6.974a31.24 31.24 0 0 1-6.549.936c-.596.085-1.106.085-1.701.085z"/>
    <path fill="#999" d="M270.337 384.127c8.165 0 14.799 2.806 14.799 6.209 0 2.211-2.807 4.167-6.975 5.273-1.786.51-3.912.765-6.208.935h-1.701c-1.191 0-2.382-.085-3.488-.17a25.798 25.798 0 0 1-4.847-.935c-3.828-1.106-6.379-2.977-6.379-5.103 0-3.403 6.634-6.209 14.799-6.209zm0-3.402c-4.423 0-8.591.765-11.737 2.126-5.614 2.381-6.379 5.698-6.379 7.57 0 3.742 3.232 6.804 8.845 8.42 1.701.51 3.487.85 5.443 1.02h.085c1.276.085 2.552.17 3.828.17.595 0 1.19 0 1.871-.085 2.466-.085 4.763-.425 6.889-1.02 6.039-1.616 9.441-4.678 9.441-8.59 0-1.787-.851-5.189-6.379-7.57-3.402-1.361-7.57-2.041-11.907-2.041z"/>
    <path fill="#C4C4C4" d="M425.387 439.751h-57.41c20.072-24.325 7.994-44.568-6.209-63.959-10.632-14.544-46.269-23.73-46.269-23.73h46.269l63.619 87.689zM273.399 365.075c18.116 0 39.804 4.848 44.567 15.65-5.018-7.145-22.879-8.421-31.214-8.421-33.511.085-168.829-2.466-168.829-2.466 0-2.382.681-5.443.681-5.443l154.795.68zM270.337 384.126c8.165 0 14.799 2.807 14.799 6.209 0 2.212-2.807 4.168-6.974 5.274v-.171s-1.276-4.677-8.931-4.677c-7.57 0-7.229 4.592-7.229 4.677-3.828-1.105-6.379-2.976-6.379-5.103-.085-3.402 6.549-6.209 14.714-6.209z"/>
    <path fill="#DAAA85" stroke="#AA7959" stroke-linecap="round" stroke-linejoin="round" stroke-miterlimit="10" stroke-width="4" d="M232.233 366.351l-46.523-38.869-43.972-166.277-12.588 5.273s-11.567 6.804-17.435 5.614c-5.784-1.106-8.08-4.508-8.08-9.016s-3.487-4.508-3.487-4.508c-2.297-3.402 1.19-5.613 1.19-5.613s-4.678 2.296-4.678-2.296c0-4.593-2.296-7.91-2.296-7.91s-9.27-2.297-3.487-11.312c3.912-6.124 4.678-13.523 2.296-16.926-2.041-2.976-5.783-58.6 46.354-57.495 52.137 1.106 62.598 45.078 47.544 76.717 0 0 33 21.859 82.415 80.63 49.416 58.771 56.9 92.366 40.06 132.426-16.67 40.144-77.313 19.562-77.313 19.562z"/>
    <path fill="#DAAA85" d="M186.05 313.448s20.583-2.211 42.186 39.294c23.559 45.163 31.044 50.011 31.044 50.011s9.356 8.42 3.742 19.562c-5.613 11.142-24.24 4.678-24.24 4.678s-7.484-2.807-13.948 0c-6.549 2.807-17.691 5.613-29.853 1.871-12.163-3.742-15.82-10.376-7.485-13.183 8.42-2.807 20.413-5.528 26.962-13.863 0 0 2.806-4.678-2.807-8.421-5.614-3.742-44.312-37.167-54.604-46.438-10.291-9.271-31.724-32.66-32.66-44.823-.935-12.162 7.485-28.917 28.918-27.046 21.433 1.871 38.444-4.848 114.905 26.876"/>
    <path stroke="#AA7959" stroke-linecap="round" stroke-linejoin="round" stroke-miterlimit="10" stroke-width="4" d="M186.05 313.448s20.583-2.211 42.186 39.294c23.559 45.163 31.044 50.011 31.044 50.011s9.356 8.42 3.742 19.562c-5.613 11.142-24.24 4.678-24.24 4.678s-7.484-2.807-13.948 0c-6.549 2.807-17.691 5.613-29.853 1.871-12.163-3.742-15.82-10.376-7.485-13.183 8.42-2.807 20.413-5.528 26.962-13.863 0 0 2.806-4.678-2.807-8.421-5.614-3.742-44.312-37.167-54.604-46.438-10.291-9.271-31.724-32.66-32.66-44.823-.935-12.162 7.485-28.917 28.918-27.046 21.433 1.871 38.444-4.848 114.905 26.876"/>
    <path fill="#DAAA85" d="M164.277 156.782s-23.304 1.871-24.24 26.111c-.936 24.24 7.485 57.495 7.485 57.495s-36.828 7.485-45.248 11.227c-8.42 3.743-20.498 13.098-20.498 13.098s-12.162 17.691-9.355 23.305c2.806 5.613 7.484.935 7.484.935s6.55-10.291 14.884-11.227c8.42-.935 11.227-2.806 14.884-8.42 0 0-2.296-3.742 32.235 3.742 34.531 7.485 33.17-.68 37.338-9.355 6.719-14.119 9.101-52.222 6.549-80.63"/>
    <path stroke="#AA7959" stroke-linecap="round" stroke-linejoin="round" stroke-miterlimit="10" stroke-width="4" d="M164.277 156.782s-23.304 1.871-24.24 26.111c-.936 24.24 7.485 57.495 7.485 57.495s-36.828 7.485-45.248 11.227c-8.42 3.743-20.498 13.098-20.498 13.098s-12.162 17.691-9.355 23.305c2.806 5.613 7.484.935 7.484.935s6.55-10.291 14.884-11.227c8.42-.935 11.227-2.806 14.884-8.42 0 0-2.296-3.742 32.235 3.742 34.531 7.485 33.17-.68 37.338-9.355 6.719-14.119 9.101-52.222 6.549-80.63"/>
</svg>
