<?xml version="1.0" encoding="UTF-8"?>
<svg width="50px" height="38px" viewBox="0 0 50 38" version="1.1" xmlns="http://www.w3.org/2000/svg" xmlns:xlink="http://www.w3.org/1999/xlink">
    <!-- Generator: sketchtool 50.2 (55047) - http://www.bohemiancoding.com/sketch -->
    <title>4EEAE6B1-3D13-4CE5-A454-80687050EC64</title>
    <desc>Created with sketchtool.</desc>
    <defs>
        <polygon id="path-1" points="0 0.8261 31.4922387 0.8261 31.4922387 36.2583038 0 36.2583038"></polygon>
        <polygon id="path-3" points="0.407334403 0.487990389 15 0.487990389 15 23.0923 0.407334403 23.0923"></polygon>
    </defs>
    <g id="splash" stroke="none" stroke-width="1" fill="none" fill-rule="evenodd">
        <g id="splash_mobile" transform="translate(-10.000000, -521.000000)">
            <g id="Group" transform="translate(10.000000, 521.000000)">
                <g id="Group-3" transform="translate(0.000000, -0.825900)">
                    <g id="Clip-2"></g>
                    <path d="M17.7056,25.5511 C17.2456,25.5631 16.7906,25.4981 16.3486,25.4041 C15.6996,25.2621 15.0856,25.0261 14.5136,24.6901 C13.8516,24.3061 13.2856,23.8161 12.8136,23.2141 C12.2826,22.5481 11.9166,21.7981 11.7156,20.9721 C11.6866,20.8601 11.7046,20.8361 11.8106,20.8191 C12.2646,20.7361 12.7196,20.6471 13.1676,20.5651 C13.8646,20.4351 14.5546,20.3111 15.2506,20.1811 C15.8886,20.0631 16.5256,19.9391 17.1626,19.8211 C17.9416,19.6741 18.7146,19.5321 19.4936,19.3901 C20.1246,19.2721 20.7626,19.1491 21.3936,19.0301 C22.1316,18.8951 22.8636,18.7591 23.6006,18.6231 C24.2446,18.5051 24.8876,18.3821 25.5306,18.2631 C25.9256,18.1871 26.3156,18.1101 26.7106,18.0451 C26.7876,18.0331 26.8106,18.0041 26.7996,17.9331 C26.7756,17.8331 26.7816,17.7381 26.7636,17.6381 C26.6696,17.1241 26.5806,16.6111 26.4686,16.0981 C26.2626,15.1771 25.9666,14.2921 25.5656,13.4421 C25.3066,12.8931 24.9936,12.3681 24.6396,11.8721 C24.1736,11.2181 23.6366,10.6341 23.0106,10.1321 C22.2906,9.5531 21.4886,9.1171 20.6146,8.8161 C20.1666,8.6621 19.7006,8.5441 19.2336,8.4681 C18.8506,8.4031 18.4666,8.3621 18.0836,8.3501 C17.7116,8.3431 17.3396,8.3381 16.9676,8.3671 C16.6556,8.3911 16.3366,8.4211 16.0296,8.4681 C15.2866,8.5801 14.5606,8.7571 13.8516,9.0101 C13.1436,9.2641 12.4716,9.5951 11.8396,10.0021 C11.1496,10.4501 10.5126,10.9641 9.9516,11.5721 C9.7396,11.8011 9.5386,12.0381 9.3496,12.2851 C8.9426,12.8221 8.5946,13.3891 8.3166,14.0031 C8.1046,14.4691 7.9276,14.9531 7.7916,15.4481 C7.6446,15.9801 7.5386,16.5171 7.4786,17.0661 C7.4376,17.4201 7.4256,17.7681 7.4086,18.1221 C7.3966,18.3281 7.4136,18.5351 7.4256,18.7411 C7.4436,19.0781 7.4736,19.4081 7.5146,19.7391 C7.5856,20.3231 7.7036,20.9011 7.8566,21.4681 C8.0866,22.3291 8.4176,23.1491 8.8536,23.9231 C9.4386,24.9491 10.1696,25.8521 11.0786,26.6131 C11.9286,27.3271 12.8786,27.8641 13.9286,28.2301 C14.6486,28.4841 15.3866,28.6491 16.1416,28.7321 C16.5016,28.7731 16.8616,28.7911 17.2276,28.8081 C17.4456,28.8141 17.6586,28.8021 17.8766,28.7911 C18.1246,28.7791 18.3726,28.7561 18.6206,28.7321 C19.1516,28.6781 19.6766,28.5841 20.1896,28.4601 C21.2576,28.2071 22.2786,27.8171 23.2286,27.2571 C23.8776,26.8731 24.4796,26.4301 25.0226,25.9051 C25.4536,25.4861 25.8376,25.0261 26.1796,24.5361 C26.4746,24.1171 26.7276,23.6691 26.9706,23.2141 C27.0176,23.1261 27.0116,23.1261 26.9226,23.0721 L26.4626,22.8251 C26.1556,22.6591 25.8496,22.4941 25.5416,22.3291 C25.0466,22.0641 24.5506,21.7981 24.0606,21.5321 C23.9666,21.4791 23.9666,21.4851 23.9196,21.5861 C23.8076,21.8271 23.6896,22.0581 23.5476,22.2881 C23.2286,22.8071 22.8396,23.2611 22.4086,23.6921 C21.9076,24.1881 21.3406,24.5831 20.6976,24.8721 C19.7296,25.3211 18.7386,25.5451 17.7056,25.5511 M25.6016,34.4081 C25.4356,34.4851 25.2766,34.5561 25.1116,34.6331 C24.3676,34.9751 23.6066,35.2591 22.8276,35.5001 C22.1966,35.6891 21.5536,35.8431 20.9036,35.9671 C20.5556,36.0311 20.2076,36.0841 19.8596,36.1201 C19.5466,36.1551 19.2336,36.1851 18.9156,36.2081 C18.4076,36.2441 17.9006,36.2731 17.3866,36.2501 C16.9736,36.2321 16.5606,36.2201 16.1476,36.1791 C15.7876,36.1431 15.4276,36.1081 15.0676,36.0551 C14.6666,35.9961 14.2706,35.9191 13.8756,35.8311 C13.1496,35.6721 12.4356,35.4651 11.7336,35.2111 C10.9606,34.9341 10.2116,34.6031 9.4796,34.2261 C8.5706,33.7481 7.7036,33.1871 6.8896,32.5621 C6.4346,32.2071 5.9976,31.8301 5.5796,31.4401 C5.2486,31.1341 4.9296,30.8091 4.6226,30.4721 C4.1986,30.0071 3.7966,29.5171 3.4256,29.0091 C2.9826,28.4011 2.5756,27.7761 2.2096,27.1151 C1.7906,26.3601 1.4306,25.5751 1.1296,24.7661 C0.8646,24.0581 0.6396,23.3321 0.4686,22.5891 C0.3566,22.0991 0.2626,21.6031 0.1916,21.1081 C0.1266,20.6591 0.0796,20.2111 0.0496,19.7621 C0.0146,19.2311 -0.0154,18.7001 0.0086,18.1631 C0.0256,17.7621 0.0436,17.3661 0.0796,16.9651 C0.1676,15.9621 0.3386,14.9761 0.5926,14.0091 C0.8106,13.1891 1.0826,12.3861 1.4186,11.6071 C1.5956,11.1881 1.7906,10.7691 2.0026,10.3681 C2.5346,9.3531 3.1536,8.3971 3.8676,7.5061 C4.1806,7.1221 4.5046,6.7501 4.8416,6.3841 C5.4436,5.7411 6.0926,5.1571 6.7826,4.6141 C7.4026,4.1241 8.0516,3.6821 8.7296,3.2801 C9.3796,2.8971 10.0516,2.5551 10.7476,2.2601 C11.6986,1.8591 12.6716,1.5341 13.6696,1.2981 C14.1536,1.1861 14.6426,1.0971 15.1386,1.0211 C15.5046,0.9681 15.8766,0.9201 16.2476,0.8911 C16.4836,0.8731 16.7206,0.8431 16.9556,0.8491 C17.0036,0.8491 17.0626,0.8671 17.1036,0.8261 L18.3196,0.8261 C18.3366,0.8431 18.3606,0.8491 18.3846,0.8491 C18.5676,0.8551 18.7496,0.8611 18.9336,0.8791 C19.3106,0.9031 19.6826,0.9441 20.0546,0.9911 C20.5206,1.0501 20.9866,1.1331 21.4466,1.2271 C22.2256,1.3921 22.9926,1.6111 23.7426,1.8881 C24.4796,2.1541 25.1936,2.4671 25.8906,2.8321 C26.9056,3.3631 27.8616,3.9831 28.7526,4.6971 C29.1356,5.0091 29.5076,5.3341 29.8736,5.6711 C30.4166,6.1721 30.9006,6.7211 31.3846,7.2761 C31.4606,7.3641 31.4906,7.4651 31.4906,7.5821 L31.4906,29.5101 C31.4906,29.5751 31.5016,29.6401 31.4666,29.7051 C31.4496,29.7231 31.4316,29.7411 31.4196,29.7591 C29.8316,31.6881 27.9326,33.2171 25.7076,34.3491 C25.6656,34.3671 25.6246,34.3791 25.6016,34.4081" id="Fill-1" fill="#79CAD0" mask="url(#mask-2)"></path>
                </g>
                <g id="Group-6" transform="translate(35.000000, 7.174100)">
                    <g id="Clip-5"></g>
                    <path d="M0.4088,11.7093 C0.4028,11.4263 0.4268,11.0723 0.4268,10.7173 C0.4268,10.2923 0.4088,9.8683 0.4088,9.4433 L0.4088,0.6623 C0.4088,0.4673 0.3798,0.4853 0.5798,0.4913 C3.6008,0.5683 6.3508,1.4653 8.8058,3.2293 C11.7738,5.3593 13.6978,8.2153 14.5888,11.7623 C14.7718,12.4823 14.8838,13.2143 14.9428,13.9513 C15.0138,14.7603 15.0198,15.5623 14.9548,16.3713 C14.7718,18.7433 14.0578,20.9503 12.8068,22.9803 C12.7538,23.0633 12.7008,23.0923 12.6058,23.0923 L0.5558,23.0923 L0.5148,23.0923 C0.4088,23.0923 0.4088,23.0923 0.4088,22.9803 L0.4088,22.8683 L0.4088,11.7093 Z" id="Fill-4" fill="#F1592C" mask="url(#mask-4)"></path>
                </g>
                <path d="M25.6012,33.5826 C25.6312,33.5476 25.6722,33.5356 25.7072,33.5176 C27.9322,32.3846 29.8382,30.8566 31.4192,28.9266 C31.4372,28.9096 31.4492,28.8916 31.4672,28.8736 C31.4902,28.9266 31.4782,28.9856 31.4782,29.0396 L31.4782,33.5706 C31.4782,33.7716 31.4672,33.7486 31.6502,33.7486 L44.4782,33.7486 L44.6502,33.7486 C44.6432,33.8006 44.6142,33.8126 44.5912,33.8306 C42.6672,35.3946 40.4962,36.4266 38.0642,36.8986 C37.0382,37.0996 35.9992,37.1936 34.9542,37.1706 C31.4552,37.0826 28.3632,35.9136 25.6842,33.6596 C25.6542,33.6356 25.6252,33.6126 25.6012,33.5826" id="Fill-7" fill="#F1592C"></path>
                <path d="M22.4796,15.0772 C22.3376,15.1362 22.1906,15.1422 22.0486,15.1712 C21.3996,15.2952 20.7566,15.4192 20.1076,15.5372 C19.2926,15.6912 18.4786,15.8382 17.6646,15.9922 C16.9566,16.1212 16.2486,16.2572 15.5406,16.3872 C14.8256,16.5232 14.1176,16.6532 13.4036,16.7822 C12.6956,16.9122 11.9876,17.0422 11.2796,17.1782 C11.1616,17.2012 11.1256,17.1832 11.1256,17.0662 C11.1256,16.8122 11.0906,16.5582 11.1086,16.3042 C11.1316,15.9972 11.1616,15.6972 11.2266,15.3952 C11.3026,15.0242 11.4206,14.6702 11.5626,14.3222 C11.7696,13.8262 12.0406,13.3712 12.3656,12.9472 C12.8016,12.3922 13.3216,11.9312 13.9166,11.5602 C14.4956,11.1942 15.1216,10.9342 15.7876,10.7812 C16.1246,10.7042 16.4606,10.6512 16.8026,10.6162 C17.1456,10.5802 17.4936,10.5802 17.8356,10.6042 C18.3846,10.6402 18.9096,10.7812 19.4166,10.9942 C20.3606,11.3952 21.0756,12.0562 21.6126,12.9232 C22.0136,13.5782 22.2786,14.2862 22.4506,15.0302 C22.4736,15.0352 22.4736,15.0532 22.4796,15.0772" id="Fill-9" fill="#79CAD0"></path>
            </g>
        </g>
    </g>
</svg>