<svg xmlns="http://www.w3.org/2000/svg" viewBox="0 0 664.75 609.25"><defs><style>.cls-1{fill:#46140e;}.cls-2{fill:#241b14;}.cls-3{fill:#d9aa86;}.cls-4{fill:#110f0f;}.cls-5{fill:#fff;}.cls-6{fill:#5a0f0c;}.cls-7{fill:#e99092;}.cls-8{fill:#d9d7d7;}.cls-9{fill:#ac2523;}.cls-10{fill:none;}</style></defs><title>chhotabheem_head</title><g id="Layer_2" data-name="Layer 2"><g id="Layer_2-2" data-name="Layer 2"><path class="cls-1" d="M442.4,560.4a313.27,313.27,0,0,1-70.51,12.85c-11,.73-22,1.57-33.05,2-3.59.13-4.91-1.16-3.44-4.65l-.14-.18c-2.69-.08-3.89-1.22-2.86-4l-.26-.36c-3,.44-2.44-1.75-2.58-3.42-1.59-.11-2.19-.88-1.67-2.42l.05,0h0a0,0,0,0,0,0,0l0,0c-1.73-.51-3-2.07-5.13-2.47,6.05-3.16,11.57-7.33,18.68-7.88l.29-.16c-.15-1.74.78-1.34,1.74-.87l.35-.18c-.15-1.74.78-1.33,1.74-.87l.35-.17c1.67-3.38,4.51-4.4,8.06-4l.3-.16c-.19-1.72.79-1.37,1.78-1l.13-.06c2.69-4.67,7.28-5.88,12.1-6.68a.89.89,0,0,1,1.34-.51l.24-.12c1-3.82,3.74-4.38,7.08-3.94l.39-.23c-.23-1.78.73-1.28,1.64-.86-.36-2.87,3-2.71,4.18-4.72-9.51-2.55-18.06-6.48-24.95-13-3.61-3.41-5.92-2.81-9.18,0a200.77,200.77,0,0,1-40.42,28,295.12,295.12,0,0,1-28.13,12.37c-3.12.76-6.08,2.2-9.25,2.89a54.68,54.68,0,0,0-7.44,1.66c-5.32-4.79-16.16-2.61-16,6.63.53,26.82,26,40.33,49.52,43.67a170.78,170.78,0,0,0,54-.91,107.91,107.91,0,0,0,32.36-6.8l1.42-.24c5.28-2.31,10.39-5,15.49-7.68,15.58-8.24,30.56-17.4,43.93-29l1.23-1a1,1,0,0,1,1.25-1l.08,0C445.7,559.1,444.11,559.88,442.4,560.4Z"/><path class="cls-2" d="M447.05,561c-1.35-1.87-2.94-1.08-4.65-.56a313.27,313.27,0,0,1-70.51,12.85c-11,.73-22,1.57-33.05,2-3.59.13-4.91-1.16-3.44-4.65,1.13,2,2.73,2.65,5.1,2.66,17.89.07,35.62-1.67,53.36-3.93A341.18,341.18,0,0,0,454,555.6Z"/><path class="cls-2" d="M327.94,560.19c-1.76-.5-3-2.09-5.18-2.49,6.05-3.16,11.57-7.33,18.68-7.88-4.18,2.06-8.28,4.31-12.57,6.1C326.07,557.09,326.78,558.45,327.94,560.19Z"/><path class="cls-2" d="M356.18,542.32c2.7-4.69,7.32-5.89,12.16-6.69A65.38,65.38,0,0,1,356.18,542.32Z"/><path class="cls-2" d="M345.91,547.57c1.67-3.38,4.51-4.4,8.06-4Z"/><path class="cls-2" d="M369.86,535c1-3.82,3.74-4.38,7.08-3.94Z"/><path class="cls-2" d="M335.26,570.39c-2.69-.08-3.89-1.22-2.86-4C333.35,567.74,334.31,569.06,335.26,570.39Z"/><path class="cls-2" d="M332.14,566.06c-3,.45-2.43-1.78-2.58-3.46Z"/><path class="cls-2" d="M329.59,562.64c-1.64-.1-2.25-.89-1.68-2.49Z"/><path class="cls-2" d="M377.33,530.84c-.23-1.8.74-1.27,1.65-.86Z"/><path class="cls-2" d="M354.27,543.39c-.19-1.72.79-1.37,1.78-1C355.45,542.71,354.86,543.05,354.27,543.39Z"/><path class="cls-2" d="M343.82,548.61c-.15-1.74.78-1.33,1.74-.87Z"/><path class="cls-2" d="M341.73,549.66c-.15-1.74.78-1.34,1.74-.87Z"/><path class="cls-2" d="M445.71,562a1,1,0,0,1,1.26-1Z"/><path class="cls-2" d="M444.49,562.92l1.34-1.06Z"/><path class="cls-2" d="M368.25,535.7a.91.91,0,0,1,1.37-.57Z"/><path class="cls-3" d="M78.82,169a171.73,171.73,0,0,1,50.45-58.45c14.75,25,36.73,40.5,62.85,51.07C213,170.06,234.71,173.7,257,175.23c12.86.88,25.7,1.39,38.57,1.23,1.59,0,4,.71,4.54-1.38.66-2.57-2.27-2.14-3.57-2.81-7.93-4.07-15.57-8.53-21.61-15.21-9.49-10.51-4.81-25.14,9.08-27.94,15.22-3.07,30-.3,43.49,6.52,44.84,22.68,76.85,56.78,90.17,106.19,5.77,21.42,5.66,43.48,2.07,65.24-6.09,36.94-20,71.32-36.49,104.71-2.85,5.76-5.85,11.44-8.71,17.19-.66,1.35-2.11,2.75-1.1,4.3,1.17,1.8,3.21,1,4.8.71a172.51,172.51,0,0,0,33.18-8.59c13.36-5.06,32.21,2.29,40.46,12.26,5.14,6.21,10.08,12.45,11.36,20.71,2,12.67-3,23.44-9.42,33.79C436.27,520.52,401.14,527,381.26,521c-13.07-3.94-23.88-11-30.69-23.3-.79-1.42-1.41-4-3.52-2.72s.08,3.12.79,4.45c3.74,7,3.55,6.71-2.68,11.94-21.81,18.32-46,32.07-73.42,40.18-20.55,6.08-41.54,7.85-62.87,7.18a241.69,241.69,0,0,1-93.21-21.48,188.72,188.72,0,0,1-81-69.06C20.77,447.11,10.33,424.59,5.2,399.77a80.15,80.15,0,0,1-.2-32.1c2.42-12.12,9.85-21.34,18.91-29.22s17.85-16.06,27.77-22.86c2.64-1.81,2.24-4.15,2-6.46-1.52-13.71-1.28-27.47-.84-41.2.83-25.64,5.09-50.73,14-74.91,2.6-7.09,9.22-10.33,15.12-13.66,11.28-6.37,23.35-5.37,35.3-1.62a47.34,47.34,0,0,1,8.67,3.49c4.34,2.4,7.24,1,9.48-2.87,2.67-4.67,2-9-1.84-11.47-6.54-4.22-14.08-4.75-21.51-5.23C100.37,160.9,89.08,162.28,78.82,169Zm83.49,274.12a65.88,65.88,0,0,1-66.93-3.82c-7.41-5-13.72-11.24-17.34-19.69A19.65,19.65,0,0,1,76.91,409c.32-2,3.73-.3,5.6-1.16,1-.48,1.85-1.12,1.6-2.31a1.66,1.66,0,0,0-2-1.23c-3.1.75-5.72-.78-8.56-1.46a10.19,10.19,0,0,0-8.06,1c-1.47.92-3.7,1.87-2.72,3.73s2.78.25,4.09-.51c4-2.33,6-1.39,6.19,3.41.19,6.76-.43,13.74,1.1,20.2,1.72,7.26,1.11,14-.27,21-1.48,7.51-.12,14.63,6.38,19.16,18.87,13.15,38,17.95,58.58,3.21,9.94-7.11,17.44-16.33,24.9-25.71,1-1.21,1.54-3.64,3.91-2.15,4,2.55,9,4.46,8.36,10.71-.11,1.13-.46,2.77,1.28,2.88s2.05-1.59,2.23-2.95c.66-5-2.28-8.2-5.92-10.76-4.74-3.32-10.72-5.36-11.43-12.43a1.66,1.66,0,0,0-2.39-1.29c-1.12.53-1,1.61-.78,2.7A20.68,20.68,0,0,0,162.31,443.12Zm121.33-44c1.56-.89,3.05-1.78,4.57-2.61,29.25-15.94,45.8-60.58,27.94-93.43-13.27-24.4-41.22-34.73-66.24-22.93-26.27,12.4-38.48,34.51-40.16,62.81-.76,12.89,2.72,25,9,36.43-4.75.64-5.7,1.06-5.21,2.21,1,2.44,3.33,1.28,5.07,1.44,22.42,2,43.55,8.08,63.16,19.32,2.27,1.3,5.13,5.57,7.25,2.56C290.74,402.42,285.28,401.89,283.64,399.13ZM260.75,215.65c-1.56,0-3.13,0-4.69,0-5.77.11-7.87,2.43-8,8.45-.15,5.47,3.7,5.15,7.4,5.63,22.74,2.91,43.83,10,61.91,24.67a116.14,116.14,0,0,1,19.14,19.81c.89,1.16,1.76,3.2,3.58,1.81,1.44-1.11-.1-2.53-.7-3.65-1.94-3.67-4.07-7.25-6-10.92C317.83,232.4,293,218.25,260.75,215.65ZM64.66,322.29a21.89,21.89,0,0,0-2.44.19c-1.54.28-4.24-.91-4.25,1.53,0,2.85,2.85,1.74,4.54,1.84a81.15,81.15,0,0,1,22.36,4.28A84.6,84.6,0,0,1,105.52,341c1.25.88,2.66,2.41,4.08.9s-.28-2.51-1.35-3.27c-2-1.41-1.08-2.33.21-3.61,20.17-20,28.3-44.8,27.68-72.66-.26-11.39-2.83-22.41-10.26-31.6-8.24-10.19-21.53-12.61-32.7-5.88a54.63,54.63,0,0,0-21.42,23.6C60.53,272.1,57.09,296.64,64.66,322.29Zm69.17,77.41c2.09,0,4.17.05,6.26,0,1.4,0,3.11-.26,3-2s-1.82-1.34-2.93-1.2c-4.73.58-9.36-.28-14-.86-12.6-1.56-23-7.59-31.41-16.81-6-6.6-6.73-17.12-2.37-23.73,4.73-7.16,12.32-9.24,22.12-6.22,10.31,3.18,19.58,8.75,29.51,12.78,2.56,1,5.2,1.89,7.84,2.71a1.52,1.52,0,0,0,2.09-.95,1.68,1.68,0,0,0-1.09-2.09c-2.4-1-4.82-1.93-7.25-2.83-10.86-4-20.69-10.62-32.08-13.32-6.16-1.46-12.3-1.82-18,2a22.6,22.6,0,0,0-3.35,34.16C103.49,393,117.26,399.68,133.83,399.7Zm35.89-178c-.15,9,2.17,12.78,7.61,14.82,5.12,1.92,9.92.32,14.12-4.76a26.82,26.82,0,0,0,6.4-16.13c.6-14.37.69-28.76,2.13-43.1.15-1.43,1-3.53-1-4.13s-2.34,1.67-3,2.89c-7.16,12.27-14.31,24.55-21.3,36.91C172,213,169.9,218.18,169.72,221.7ZM111.41,504.51A53.41,53.41,0,0,0,127,502.4c1.1-.3,2.07-.72,1.91-2s-1.34-1.45-2.41-1.3-2.37.49-3.56.72c-20.35,3.85-37.48-.75-49.48-18.87-.78-1.18-1.68-3.34-3.48-1.88s.19,2.86,1,4C80.28,497.28,93.13,505.1,111.41,504.51ZM416.71,457c-2.06.26-4.15.34-6.16.8-16.68,3.83-27.18,15.87-37.4,28.26-.84,1-1.49,2.31-.27,3.16,1.44,1,2.48-.23,3.41-1.34,3.33-4,6.44-8.23,10.1-11.9,12.06-12.1,25.48-20,43.27-12.51,1,.43,2.44,1.42,3-.39.46-1.4-.81-2.2-1.91-2.71A32.24,32.24,0,0,0,416.71,457Z"/><path class="cls-1" d="M468,460.09c-6-21.81-19.7-35.11-41.74-40.07,6.6-3,12.91-5.82,19.12-8.83,1.49-.73,4.65-1.05,3.44-3.48-.83-1.67-3.49-.64-5.22.29C430.68,415,416.9,419.69,403,424.14a135.2,135.2,0,0,1-20.62,5.16c-1,.15-2,1.07-2.93.22-1.21-1.17.09-2.27.55-3.24,4.77-10.06,10-19.86,14.54-30,10.52-23.66,19.77-47.72,25.94-72.92a183.3,183.3,0,0,0,5-54.12c-1.86-33-12.88-63-34.5-88-20.71-23.9-44.56-44.47-75.86-53.82-10.12-3-20.6-4.78-31.22-2.25-8.15,1.94-14.4,6.55-16.84,14.72-2.88,9.64,1.46,17.29,8.59,23.32,4,3.43,8.26,6.81,14,9.37-10.35,1.64-19.74,0-29-.78-9.79-.81-19.66-1-29.39-2.85-20.22-3.81-39.48-9.92-57.53-20.19a117.34,117.34,0,0,1-35.15-30.46c-9.41-12.15-11.2-22.16,1.06-33.9s25.11-21.93,41.43-27c5.41-1.68,11-3.28,16.74-3.39,1.76,0,3.95,0,3.95-2.32,0-2.78-2.57-2-4-1.77-10.15,1.5-20.09,4-29.35,8.47-12.3,6-22.83,14.44-32.16,24.39-5.94,6.33-11.31,12.93-8.79,22.56.47,1.81-.87,2.31-2,3.21A274.29,274.29,0,0,0,104.4,127c-7,7.06-12.8,15-18.3,23.25-2.1,3.13-3.71,3.27-5.49-.08C67.19,124.92,52.25,100.31,46,71.87c-1.56-7.1-2.41-14.21-.84-21.6a19.94,19.94,0,0,1,8.67-13c14-9.49,30.09-14,46.15-18.39,19.35-5.36,38.94-10,58.78-12.59a322.88,322.88,0,0,1,67.47-1.6,498.81,498.81,0,0,1,58.41,8.55c33.52,6.75,65.4,18.36,96.12,33.09a655,655,0,0,1,67.51,37c17.73,11.22,35.8,21.92,53.39,33.34,13.08,8.48,25.24,18.28,37.28,28.19,9,7.39,17.94,14.87,25.61,23.63,13.69,15.64,27.21,31.48,36,50.6,5.26,11.44,8.78,23.65,8.58,36.13s-4.3,24.48-9.2,36c-14.48,34.17-35.37,64.36-58.38,93.16-18.6,23.27-40.31,43.64-61.47,64.49C476.36,452.63,472.3,456.2,468,460.09Z"/><path class="cls-1" d="M645,133.37c-6.8-1.22-13.17-4.21-20.12-4.81-9.9-.86-19.73-1.09-29.26,2.38a11.54,11.54,0,0,0-1.87.91c-1.58.94-4.24,1.64-3.44,3.83.73,2,3,0,5.33.31-7.64,13.85-12,28.65-15.74,44.45a251.66,251.66,0,0,0-23.06-24.95c-2.46-2.29-3.33-4.79-2.41-7.91,3.9-13.13,8.12-26.14,14-38.57a46.14,46.14,0,0,1,6.87-10.37c4-4.63,9.16-2.1,13.52-1.06,9.36,2.24,17.71,7.16,25.68,12.37,9.7,6.34,18.87,13.47,28.33,20.18,1.21.86,2.21,1.65,2.23,3.23Z"/><path class="cls-1" d="M645,133.36l1.36.39-.26.4-1.11-.78Z"/><path class="cls-2" d="M162.31,443.12A20.68,20.68,0,0,1,159,435c-.24-1.09-.34-2.17.78-2.7a1.66,1.66,0,0,1,2.39,1.29c.71,7.07,6.69,9.11,11.43,12.43,3.64,2.56,6.58,5.75,5.92,10.76-.18,1.36-.36,3.08-2.23,2.95s-1.39-1.75-1.28-2.88c.61-6.25-4.32-8.16-8.36-10.71-2.37-1.49-3,.94-3.91,2.15-7.46,9.38-15,18.6-24.9,25.71-20.62,14.74-39.71,9.94-58.58-3.21-6.5-4.53-7.86-11.65-6.38-19.16,1.38-7,2-13.75.27-21-1.53-6.46-.91-13.44-1.1-20.2-.14-4.8-2.2-5.74-6.19-3.41-1.31.76-3.19,2.23-4.09.51s1.25-2.81,2.72-3.73a10.19,10.19,0,0,1,8.06-1c2.84.68,5.46,2.21,8.56,1.46a1.66,1.66,0,0,1,2,1.23c.25,1.19-.55,1.83-1.6,2.31-1.87.86-5.28-.88-5.6,1.16A19.65,19.65,0,0,0,78,419.61c3.62,8.45,9.93,14.71,17.34,19.69A65.88,65.88,0,0,0,162.31,443.12ZM76.62,425.45a31.73,31.73,0,0,0,8.44,19.65c6.87,7.4,15.73,11.32,25.21,13.64,15.12,3.69,29.38,1.2,43.89-7.88C122.12,458.69,96.93,450.24,76.62,425.45Zm2.71,18.75c-.53,2.15-1,3.93-1.41,5.71-2.47,10.32,1.13,17.82,10.8,22.65,1.33.66,2.31.87,3.72-.22,4.24-3.28,4.53-8.45,6.49-12.8.59-1.31-.94-1.66-1.8-2A43.91,43.91,0,0,1,79.33,444.2ZM135.51,472c-6.16-.81-11,.81-15.85,2.67-3,1.15-2.91,1.2-3.61-2.1-.1-.45-.86-.86-1.39-1.12-4.78-2.4-15.46-.53-19.71,3.41C111.12,482.33,120.92,481.51,135.51,472Z"/><path class="cls-2" d="M283.64,399.13c1.64,2.76,7.1,3.29,5.34,5.8-2.12,3-5-1.26-7.25-2.56C262.12,391.13,241,385,218.57,383.05c-1.74-.16-4,1-5.07-1.44-.49-1.15.46-1.57,5.21-2.21-6.24-11.4-9.72-23.54-9-36.43,1.68-28.3,13.89-50.41,40.16-62.81,25-11.8,53-1.47,66.24,22.93,17.86,32.85,1.31,77.49-27.94,93.43C286.69,397.35,285.2,398.24,283.64,399.13Zm-70.25-54.68a63.94,63.94,0,0,0,8.07,32.47,7,7,0,0,0,6.13,4,117.31,117.31,0,0,1,44.11,12.8c6.08,3.22,10.82,3.14,16.07-.54.85-.6,1.73-1.17,2.58-1.76,22-15.26,34.1-45.63,28.59-71.85-7.11-33.81-42.87-51.23-71.65-34.51C224.65,298.17,214.31,318.74,213.39,344.45Z"/><path class="cls-4" d="M260.75,215.65c32.2,2.6,57.08,16.75,72.59,45.8,2,3.67,4.08,7.25,6,10.92.6,1.12,2.14,2.54.7,3.65-1.82,1.39-2.69-.65-3.58-1.81a116.14,116.14,0,0,0-19.14-19.81c-18.08-14.65-39.17-21.76-61.91-24.67-3.7-.48-7.55-.16-7.4-5.63.16-6,2.26-8.34,8-8.45C257.62,215.62,259.19,215.65,260.75,215.65Z"/><path class="cls-2" d="M64.66,322.29c-7.57-25.65-4.13-50.19,7.1-73.81a54.63,54.63,0,0,1,21.42-23.6c11.17-6.73,24.46-4.31,32.7,5.88,7.43,9.19,10,20.21,10.26,31.6.62,27.86-7.51,52.62-27.68,72.66-1.29,1.28-2.21,2.2-.21,3.61,1.07.76,2.69,1.86,1.35,3.27s-2.83,0-4.08-.9a84.6,84.6,0,0,0-20.65-10.87,81.15,81.15,0,0,0-22.36-4.28c-1.69-.1-4.56,1-4.54-1.84,0-2.44,2.71-1.25,4.25-1.53A21.89,21.89,0,0,1,64.66,322.29Zm68.55-54.22c-.6-11.66-1.89-22.34-7.79-31.77-7.9-12.64-22.19-15.15-34.17-6.29a48.34,48.34,0,0,0-8.5,8.35c-12.29,15-16.89,32.81-18.44,51.59-.81,9.89-.44,19.81,3.23,29.3,1,2.61,2.36,4,5.55,4.44A65.27,65.27,0,0,1,98.4,332.6c3.81,2.35,5.95,1.53,8.75-1.31C124.68,313.5,131.56,291.46,133.21,268.07Z"/><path class="cls-2" d="M133.83,399.7c-16.57,0-30.34-6.68-41.63-18.38a22.6,22.6,0,0,1,3.35-34.16c5.68-3.85,11.82-3.49,18-2,11.39,2.7,21.22,9.28,32.08,13.32,2.43.9,4.85,1.85,7.25,2.83a1.68,1.68,0,0,1,1.09,2.09,1.52,1.52,0,0,1-2.09.95c-2.64-.82-5.28-1.67-7.84-2.71-9.93-4-19.2-9.6-29.51-12.78-9.8-3-17.39-.94-22.12,6.22-4.36,6.61-3.66,17.13,2.37,23.73,8.41,9.22,18.81,15.25,31.41,16.81,4.64.58,9.27,1.44,14,.86,1.11-.14,2.84-.45,2.93,1.2s-1.61,2-3,2C138,399.75,135.92,399.7,133.83,399.7Z"/><path class="cls-2" d="M169.72,221.7c.18-3.52,2.24-8.67,5-13.5,7-12.36,14.14-24.64,21.3-36.91.7-1.22,1.05-3.5,3-2.89s1.11,2.7,1,4.13c-1.44,14.34-1.53,28.73-2.13,43.1a26.82,26.82,0,0,1-6.4,16.13c-4.2,5.08-9,6.68-14.12,4.76C171.89,234.48,169.57,230.65,169.72,221.7Zm26.45-41.5-1.48-.22q-9,15.78-18.07,31.59a32.3,32.3,0,0,0-3.47,10.31c-.78,4.32-.12,8.37,4.14,10.86,4.06,2.37,7.32.41,10.38-2.15a18.52,18.52,0,0,0,6-11.22C196.13,206.39,193.61,193.18,196.17,180.2Z"/><path class="cls-2" d="M111.41,504.51c-18.28.59-31.13-7.23-40.51-21.41-.77-1.16-2.64-2.67-1-4s2.7.7,3.48,1.88c12,18.12,29.13,22.72,49.48,18.87,1.19-.23,2.36-.55,3.56-.72s2.23,0,2.41,1.3-.81,1.69-1.91,2A53.41,53.41,0,0,1,111.41,504.51Z"/><path class="cls-2" d="M416.71,457a32.24,32.24,0,0,1,14.07,3.37c1.1.51,2.37,1.31,1.91,2.71-.59,1.81-2,.82-3,.39-17.79-7.47-31.21.41-43.27,12.51-3.66,3.67-6.77,7.9-10.1,11.9-.93,1.11-2,2.35-3.41,1.34-1.22-.85-.57-2.14.27-3.16,10.22-12.39,20.72-24.43,37.4-28.26C412.56,457.36,414.65,457.28,416.71,457Z"/><path class="cls-5" d="M76.62,425.45c20.31,24.79,45.5,33.24,77.54,25.41-14.51,9.08-28.77,11.57-43.89,7.88-9.48-2.32-18.34-6.24-25.21-13.64A31.73,31.73,0,0,1,76.62,425.45Z"/><path class="cls-6" d="M79.33,444.2a43.91,43.91,0,0,0,17.8,13.31c.86.37,2.39.72,1.8,2-2,4.35-2.25,9.52-6.49,12.8-1.41,1.09-2.39.88-3.72.22-9.67-4.83-13.27-12.33-10.8-22.65C78.34,448.13,78.8,446.35,79.33,444.2Z"/><path class="cls-7" d="M135.51,472c-14.59,9.5-24.39,10.32-40.56,2.86,4.25-3.94,14.93-5.81,19.71-3.41.53.26,1.29.67,1.39,1.12.7,3.3.63,3.25,3.61,2.1C124.47,472.82,129.35,471.2,135.51,472Z"/><path class="cls-8" d="M213.39,344.45c.92-25.71,11.26-46.28,33.9-59.43,28.78-16.72,64.54.7,71.65,34.51,5.51,26.22-6.57,56.59-28.59,71.85-.85.59-1.73,1.16-2.58,1.76-5.25,3.68-10,3.76-16.07.54a117.31,117.31,0,0,0-44.11-12.8,7,7,0,0,1-6.13-4A63.94,63.94,0,0,1,213.39,344.45Zm17.73,3.88a40.41,40.41,0,0,0,.25,4.68c1.56,9.68,5.25,18.21,14.85,22.3,8.48,3.62,16.66,1.87,24-3.49C283.31,362.32,289.37,342,283,327c-8.05-19-27.66-18.59-39.47-8A37.24,37.24,0,0,0,231.12,348.33Z"/><path class="cls-8" d="M133.21,268.07c-1.65,23.39-8.53,45.43-26.06,63.22-2.8,2.84-4.94,3.66-8.75,1.31a65.27,65.27,0,0,0-25.31-8.91c-3.19-.45-4.54-1.83-5.55-4.44-3.67-9.49-4-19.41-3.23-29.3,1.55-18.78,6.15-36.6,18.44-51.59a48.34,48.34,0,0,1,8.5-8.35c12-8.86,26.27-6.35,34.17,6.29C131.32,245.73,132.61,256.41,133.21,268.07Zm-18.88,19.46c.13-7.83-.71-13-3.06-17.7-4.44-9-13.65-11.24-21.79-5.49C75.92,273.9,69.58,298,76.61,313.22c4.54,9.83,14.26,12.17,22.66,5.33C109.89,309.91,113.43,298,114.33,287.53Z"/><path class="cls-9" d="M196.17,180.2c-2.56,13,0,26.19-2.46,39.17a18.52,18.52,0,0,1-6,11.22c-3.06,2.56-6.32,4.52-10.38,2.15-4.26-2.49-4.92-6.54-4.14-10.86a32.3,32.3,0,0,1,3.47-10.31q9-15.82,18.07-31.59Z"/><path class="cls-4" d="M231.12,348.33A37.24,37.24,0,0,1,243.57,319c11.81-10.58,31.42-11,39.47,8,6.33,14.94.27,35.31-12.79,44.81-7.37,5.36-15.55,7.11-24,3.49-9.6-4.09-13.29-12.62-14.85-22.3A40.41,40.41,0,0,1,231.12,348.33Zm24.42-31.58c4.48,4,6.36,8.16,4.33,13.45-.69,1.8.47,3,1.62,4.07,3.21,3.07,3.6,7,3.21,11.08-.55,5.71-7.56,11.8-12.94,11.54-5.54-.26-9.93-5.8-10-12.43a15.31,15.31,0,0,1,1.59-7.54c1.48-2.87-1.06-5.3-2.6-6.08-2.28-1.14-2.47,2-3.08,3.59-2.65,6.88-4.3,13.85-2.15,21.29,2.27,7.81,5.61,14.71,14.18,17.1,8.23,2.29,15.44.23,21.33-6a38.31,38.31,0,0,0,10.59-23.2C283.19,327.14,274.87,312.92,255.54,316.75Zm-12,9.78c.11,3.79,3.32,7.15,6.89,7.19s7.17-4.41,7-8.34-3.23-6.35-7.52-6.18C246.08,319.36,243.39,322.45,243.5,326.53Z"/><path class="cls-4" d="M114.33,287.53c-.9,10.48-4.44,22.38-15.06,31-8.4,6.84-18.12,4.5-22.66-5.33-7-15.24-.69-39.32,12.87-48.88,8.14-5.75,17.35-3.48,21.79,5.49C113.62,274.57,114.46,279.7,114.33,287.53ZM81.46,280.4c-3.81,9.59-5.8,18.37-3,27.74C82,320,91.06,322.19,99.78,313.53c6.09-6,8.45-13.79,10.33-21.76,1.42-6,.67-11.95-1-17.83s-6.2-9.26-12.22-9c-1.36.06-3.08-.31-3.67,1.26-.5,1.33,1,2.16,1.84,2.85,2.53,2,3,4.63,2.55,7.47a22,22,0,0,0,.75,9.48,13.86,13.86,0,0,1-4.64,14.6c-4.47,3.72-9.89,2.34-12.57-2.76-2-3.76-1.26-7.35-.1-11.08C81.56,285.12,83.56,283.71,81.46,280.4Zm13-4.83c-.23-2.78-1-5.27-4.13-5-3.65.28-5.37,2.78-5.46,6.4-.07,2.62.31,5.18,3.62,5.12C92.64,282,93.84,278.88,94.49,275.57Z"/><path class="cls-1" d="M255.54,316.75c19.33-3.83,27.65,10.39,26.06,26.86A38.31,38.31,0,0,1,271,366.81c-5.89,6.24-13.1,8.3-21.33,6-8.57-2.39-11.91-9.29-14.18-17.1-2.15-7.44-.5-14.41,2.15-21.29.61-1.56.8-4.73,3.08-3.59,1.54.78,4.08,3.21,2.6,6.08a15.31,15.31,0,0,0-1.59,7.54c.09,6.63,4.48,12.17,10,12.43,5.38.26,12.39-5.83,12.94-11.54.39-4,0-8-3.21-11.08-1.15-1.1-2.31-2.27-1.62-4.07C261.9,324.91,260,320.73,255.54,316.75Z"/><path class="cls-5" d="M243.5,326.53c-.11-4.08,2.58-7.17,6.37-7.33,4.29-.17,7.35,2.34,7.52,6.18s-3.56,8.37-7,8.34S243.61,330.32,243.5,326.53Z"/><path class="cls-1" d="M81.46,280.4c2.1,3.31.1,4.72-.43,6.4-1.16,3.73-1.88,7.32.1,11.08,2.68,5.1,8.1,6.48,12.57,2.76A13.86,13.86,0,0,0,98.34,286a22,22,0,0,1-.75-9.48c.5-2.84,0-5.5-2.55-7.47-.89-.69-2.34-1.52-1.84-2.85.59-1.57,2.31-1.2,3.67-1.26,6-.3,10.54,3.08,12.22,9s2.44,11.83,1,17.83c-1.88,8-4.24,15.72-10.33,21.76-8.72,8.66-17.75,6.42-21.3-5.39C75.66,298.77,77.65,290,81.46,280.4Z"/><path class="cls-5" d="M94.49,275.57c-.65,3.31-1.85,6.41-6,6.49-3.31.06-3.69-2.5-3.62-5.12.09-3.62,1.81-6.12,5.46-6.4C93.52,270.3,94.26,272.79,94.49,275.57Z"/><path class="cls-10" d="M642.75,130.13c-9.46-6.71-18.63-13.84-28.33-20.18-8-5.21-16.32-10.13-25.68-12.37-4.36-1-9.55-3.57-13.52,1.06A46.14,46.14,0,0,0,568.35,109c-5.83,12.43-10.05,25.44-14,38.57-.92,3.12,0,5.62,2.41,7.91a251.66,251.66,0,0,1,23.06,24.95c3.75-15.8,8.1-30.6,15.74-44.45-2.3-.31-4.6,1.7-5.33-.31-.8-2.19,1.86-2.89,3.44-3.83a11.54,11.54,0,0,1,1.87-.91c9.53-3.47,19.36-3.24,29.26-2.38,6.95.6,13.32,3.59,20.12,4.81l1.11.78.26-.4-1.36-.39C645,131.78,644,131,642.75,130.13Z"/><path class="cls-10" d="M539,144.89c-12-9.91-24.2-19.71-37.28-28.19C484.1,105.28,466,94.58,448.3,83.36a655,655,0,0,0-67.51-37C350.07,31.6,318.19,20,284.67,13.24a498.81,498.81,0,0,0-58.41-8.55,322.88,322.88,0,0,0-67.47,1.6C139,8.86,119.36,13.52,100,18.88,84,23.32,67.88,27.78,53.86,37.27a19.94,19.94,0,0,0-8.67,13c-1.57,7.39-.72,14.5.84,21.6,6.22,28.44,21.16,53.05,34.58,78.32,1.78,3.35,3.39,3.21,5.49.08,5.5-8.21,11.26-16.19,18.3-23.25a274.29,274.29,0,0,1,21.11-18.51c1.09-.9,2.43-1.4,2-3.21-2.52-9.63,2.85-16.23,8.79-22.56,9.33-9.95,19.86-18.41,32.16-24.39,9.26-4.5,19.2-7,29.35-8.47,1.42-.2,4-1,4,1.77,0,2.32-2.19,2.29-3.95,2.32-5.79.11-11.33,1.71-16.74,3.39-16.32,5.08-29.24,15.34-41.43,27s-10.47,21.75-1.06,33.9a117.34,117.34,0,0,0,35.15,30.46C191.78,159,211,165.11,231.26,168.92c9.73,1.83,19.6,2,29.39,2.85,9.3.76,18.69,2.42,29,.78-5.77-2.56-10-5.94-14-9.37-7.13-6-11.47-13.68-8.59-23.32,2.44-8.17,8.69-12.78,16.84-14.72,10.62-2.53,21.1-.77,31.22,2.25,31.3,9.35,55.15,29.92,75.86,53.82,21.62,24.95,32.64,55,34.5,88a183.3,183.3,0,0,1-5,54.12c-6.17,25.2-15.42,49.26-25.94,72.92-4.52,10.18-9.77,20-14.54,30-.46,1-1.76,2.07-.55,3.24.89.85,1.94-.07,2.93-.22A135.2,135.2,0,0,0,403,424.14c13.91-4.45,27.69-9.19,40.6-16.14,1.73-.93,4.39-2,5.22-.29,1.21,2.43-1.95,2.75-3.44,3.48-6.21,3-12.52,5.8-19.12,8.83,22,5,35.71,18.26,41.74,40.07,4.31-3.89,8.37-7.46,12.13-11.17,21.16-20.84,42.87-41.21,61.47-64.48,23-28.8,43.9-59,58.38-93.16,4.9-11.55,9-23.56,9.2-36s-3.32-24.69-8.58-36.13c-8.8-19.12-22.32-35-36-50.6C556.91,159.76,548,152.28,539,144.89Z"/><path class="cls-10" d="M451.89,437.65c-8.25-10-27.1-17.32-40.46-12.26A172.51,172.51,0,0,1,378.25,434c-1.59.26-3.63,1.09-4.8-.71-1-1.55.44-2.95,1.1-4.3,2.86-5.75,5.86-11.43,8.71-17.19,16.52-33.39,30.4-67.77,36.49-104.71,3.59-21.76,3.7-43.82-2.07-65.24-13.32-49.41-45.33-83.51-90.17-106.19-13.5-6.82-28.27-9.59-43.49-6.52-13.89,2.8-18.57,17.43-9.08,27.94,6,6.68,13.68,11.14,21.61,15.21,1.3.67,4.23.24,3.57,2.81-.53,2.09-2.95,1.37-4.54,1.38-12.87.16-25.71-.35-38.57-1.23-22.3-1.53-44-5.17-64.89-13.61C166,151.05,144,135.51,129.27,110.55A171.64,171.64,0,0,0,78.82,169c10.26-6.72,21.55-8.1,33.19-7.34,7.43.48,15,1,21.51,5.23,3.87,2.49,4.51,6.8,1.84,11.47-2.24,3.91-5.14,5.27-9.48,2.87a47.34,47.34,0,0,0-8.67-3.49c-11.95-3.75-24-4.75-35.3,1.62C76,182.69,69.39,185.93,66.79,193c-8.87,24.18-13.13,49.27-14,74.91-.44,13.73-.68,27.49.84,41.2.25,2.31.65,4.65-2,6.46-9.92,6.8-18.72,15-27.77,22.86S7.42,355.55,5,367.67a80.15,80.15,0,0,0,.2,32.1c5.13,24.82,15.57,47.34,29.44,68.39a188.72,188.72,0,0,0,81,69.06,241.69,241.69,0,0,0,93.21,21.48c21.33.67,42.32-1.1,62.87-7.18,27.38-8.11,51.61-21.86,73.42-40.18,6.23-5.23,6.42-4.9,2.68-11.94-.71-1.33-2.87-3.19-.79-4.45s2.73,1.3,3.52,2.72c6.81,12.27,17.62,19.36,30.69,23.3,19.88,6,55-.45,72.57-28.82,6.41-10.35,11.38-21.12,9.42-33.79C462,450.1,457,443.86,451.89,437.65Z"/><path class="cls-2" d="M662.32,141.24c-12.42-10.36-25.09-20.41-38.64-29.26C612.4,104.6,601.33,96.72,588,93.27c-9.15-2.37-14.08-.62-19,7.29-4.61,7.37-7.84,15.41-10.67,23.6s-5.61,16.56-8.58,25.38c-7.22-6.62-14.23-12.56-21.54-18.15-27.23-20.81-56.61-38.36-86-55.73-48-28.33-97.34-53.59-152.59-65.06-19.05-4-38.1-7.48-57.5-9.09-23.1-1.91-46.28-2.32-69.2.61-22.49,2.87-44.67,8-66.56,14.12-15.54,4.35-30.86,9.21-44.48,18.21-6.32,4.18-9.62,10.11-10.68,17.64-1.31,9.37.35,18.35,2.92,27.19,7.73,26.49,21.33,50.28,34.78,74.1,1.79,3.18,1.74,5.36-.2,8.28C68.12,177.43,61.5,194.85,56.91,213.1a264.19,264.19,0,0,0-7.06,84.28c.8,10.95-1.55,18.21-11.17,24.14C31.16,326.16,25,333,17.79,339.27l0-.14c-.14.15-.28.31-.43.45-.52.53-1.06,1-1.61,1.53a45.56,45.56,0,0,1-4.29,5.63,33.35,33.35,0,0,1-3.84,6c-7.8,9.8-8.15,22.69-7.25,34.94,1.84,25.06,11.28,47.65,23.49,69.26a206.1,206.1,0,0,0,37.43,48l-.1,0,7.64,5.9c1.64,1.65,3.24,3.34,4.8,5l2.12,1.85a241.45,241.45,0,0,0,34.06,20.55,180.21,180.21,0,0,1,21.87,9.36,242.23,242.23,0,0,0,41.92,10.87c27.37,4.78,54.82,5.84,82.28.45a12.39,12.39,0,0,1,4.61-.46,46,46,0,0,1,12.09-2.2c1.22-.41,2.45-.79,3.69-1.11l-1.12-.43a323,323,0,0,0,33.47-14.42,200.77,200.77,0,0,0,40.42-28c3.26-2.85,5.57-3.45,9.18,0,6.89,6.52,15.44,10.45,24.95,13-1.19,2-4.56,1.85-4.18,4.74,4.55-3.25,9.53-4.22,15.16-4,20.76.68,38.84-5.8,53.55-20.92,9.54-9.81,16.25-21.08,18.69-34.68a13.17,13.17,0,0,1,4-7.63c18.51-17.38,36.93-34.84,54.2-53.49,34-36.73,62.64-77,81.45-123.69,6.69-16.59,8.83-33.64,3.85-51.37C605,217,596.07,202.11,585.52,188c-1.22-1.64-2.74-3.1-2.19-5.55,3.62-16.27,8.13-32.21,16.56-46.79,1-1.78,2.13-3.12,4.29-3.3,2.94-.24,5.87-.63,8.82-.73,17-.59,32.28,5.23,47.1,12.76,1.35.68,3,2.85,4.37.49C665.47,143.18,663.47,142.2,662.32,141.24ZM453.83,492.15C436.27,520.52,401.14,527,381.26,521c-13.07-3.94-23.88-11-30.69-23.3-.79-1.42-1.41-4-3.52-2.72s.08,3.12.79,4.45c3.74,7,3.55,6.71-2.68,11.94-21.81,18.32-46,32.07-73.42,40.18-20.55,6.08-41.54,7.85-62.87,7.18a241.69,241.69,0,0,1-93.21-21.48,188.72,188.72,0,0,1-81-69.06C20.77,447.11,10.33,424.59,5.2,399.77a80.15,80.15,0,0,1-.2-32.1c2.42-12.12,9.85-21.34,18.91-29.22s17.85-16.06,27.77-22.86c2.64-1.81,2.24-4.15,2-6.46-1.52-13.71-1.28-27.47-.84-41.2.83-25.64,5.09-50.73,14-74.91,2.6-7.09,9.22-10.33,15.12-13.66,11.28-6.37,23.35-5.37,35.3-1.62a47.34,47.34,0,0,1,8.67,3.49c4.34,2.4,7.24,1,9.48-2.87,2.67-4.67,2-9-1.84-11.47-6.54-4.22-14.08-4.75-21.51-5.23-11.64-.76-22.93.62-33.19,7.34a171.64,171.64,0,0,1,50.45-58.45c14.75,25,36.73,40.5,62.85,51.07C213,170.06,234.71,173.7,257,175.23c12.86.88,25.7,1.39,38.57,1.23,1.59,0,4,.71,4.54-1.38.66-2.57-2.27-2.14-3.57-2.81-7.93-4.07-15.57-8.53-21.61-15.21-9.49-10.51-4.81-25.14,9.08-27.94,15.22-3.07,30-.3,43.49,6.52,44.84,22.68,76.85,56.78,90.17,106.19,5.77,21.42,5.66,43.48,2.07,65.24-6.09,36.94-20,71.32-36.49,104.71-2.85,5.76-5.85,11.44-8.71,17.19-.66,1.35-2.11,2.75-1.1,4.3,1.17,1.8,3.21,1,4.8.71a172.51,172.51,0,0,0,33.18-8.59c13.36-5.06,32.21,2.29,40.46,12.26,5.14,6.21,10.08,12.45,11.36,20.71C465.21,471,460.24,481.8,453.83,492.15Zm146.76-273c5.26,11.44,8.78,23.65,8.58,36.13s-4.3,24.48-9.2,36c-14.48,34.17-35.37,64.36-58.38,93.16-18.6,23.27-40.31,43.64-61.47,64.48-3.76,3.71-7.82,7.28-12.13,11.17-6-21.81-19.7-35.11-41.74-40.07,6.6-3,12.91-5.82,19.12-8.83,1.49-.73,4.65-1.05,3.44-3.48-.83-1.67-3.49-.64-5.22.29C430.68,415,416.9,419.69,403,424.14a135.2,135.2,0,0,1-20.62,5.16c-1,.15-2,1.07-2.93.22-1.21-1.17.09-2.27.55-3.24,4.77-10.06,10-19.86,14.54-30,10.52-23.66,19.77-47.72,25.94-72.92a183.3,183.3,0,0,0,5-54.12c-1.86-33-12.88-63-34.5-88-20.71-23.9-44.56-44.47-75.86-53.82-10.12-3-20.6-4.78-31.22-2.25-8.15,1.94-14.4,6.55-16.84,14.72-2.88,9.64,1.46,17.29,8.59,23.32,4,3.43,8.26,6.81,14,9.37-10.35,1.64-19.74,0-29-.78-9.79-.81-19.66-1-29.39-2.85-20.22-3.81-39.48-9.92-57.53-20.19a117.34,117.34,0,0,1-35.15-30.46c-9.41-12.15-11.2-22.16,1.06-33.9s25.11-21.93,41.43-27c5.41-1.68,11-3.28,16.74-3.39,1.76,0,3.95,0,3.95-2.32,0-2.78-2.57-2-4-1.77-10.15,1.5-20.09,4-29.35,8.47-12.3,6-22.83,14.44-32.16,24.39-5.94,6.33-11.31,12.93-8.79,22.56.47,1.81-.87,2.31-2,3.21A274.29,274.29,0,0,0,104.4,127c-7,7.06-12.8,15-18.3,23.25-2.1,3.13-3.71,3.27-5.49-.08C67.19,124.92,52.25,100.31,46,71.87c-1.56-7.1-2.41-14.21-.84-21.6a19.94,19.94,0,0,1,8.67-13c14-9.49,30.09-14,46.15-18.39,19.35-5.36,38.94-10,58.78-12.59a322.88,322.88,0,0,1,67.47-1.6,498.81,498.81,0,0,1,58.41,8.55c33.52,6.75,65.4,18.36,96.12,33.09a655,655,0,0,1,67.51,37c17.73,11.22,35.8,21.92,53.39,33.34,13.08,8.48,25.24,18.28,37.28,28.19,9,7.39,17.94,14.87,25.61,23.63C578.27,184.16,591.79,200,600.59,219.12Zm45.49-85-1.11-.78c-6.8-1.22-13.17-4.21-20.12-4.81-9.9-.86-19.73-1.09-29.26,2.38a11.54,11.54,0,0,0-1.87.91c-1.58.94-4.24,1.64-3.44,3.83.73,2,3,0,5.33.31-7.64,13.85-12,28.65-15.74,44.45a251.66,251.66,0,0,0-23.06-24.95c-2.46-2.29-3.33-4.79-2.41-7.91,3.9-13.13,8.12-26.14,14-38.57a46.14,46.14,0,0,1,6.87-10.37c4-4.63,9.16-2.1,13.52-1.06,9.36,2.24,17.71,7.16,25.68,12.37,9.7,6.34,18.87,13.47,28.33,20.18,1.21.86,2.21,1.65,2.23,3.23l1.36.39Z"/><polygon class="cls-1" points="266.11 558.01 266.12 558.01 266.12 558.01 266.11 558.01"/></g></g></svg>